SplineFontDB: 3.2
FontName: KAAlmouziosCombo-Regular
FullName: KA Almouzios Combo Regular
FamilyName: KA Almouzios Combo
Weight: Book
Copyright: SIL OPEN FONT LICENSE Version 1.1
Version: 1.000
ItalicAngle: 0
UnderlinePosition: -100
UnderlineWidth: 50
Ascent: 800
Descent: 200
InvalidEm: 0
sfntRevision: 0x00010000
LayerCount: 2
Layer: 0 1 "Back" 1
Layer: 1 1 "Fore" 0
XUID: [1021 596 -667042339 11550696]
StyleMap: 0x0040
FSType: 8
OS2Version: 3
OS2_WeightWidthSlopeOnly: 0
OS2_UseTypoMetrics: 0
CreationTime: 1492613472
ModificationTime: 1728387540
PfmFamily: 81
TTFWeight: 400
TTFWidth: 5
LineGap: 0
VLineGap: 0
Panose: 0 0 5 0 0 0 0 0 0 0
OS2TypoAscent: 800
OS2TypoAOffset: 0
OS2TypoDescent: -200
OS2TypoDOffset: 0
OS2TypoLinegap: 200
OS2WinAscent: 1000
OS2WinAOffset: 0
OS2WinDescent: 200
OS2WinDOffset: 0
HheadAscent: 1000
HheadAOffset: 0
HheadDescent: -200
HheadDOffset: 0
OS2SubXSize: 650
OS2SubYSize: 600
OS2SubXOff: 0
OS2SubYOff: 75
OS2SupXSize: 650
OS2SupYSize: 600
OS2SupXOff: 0
OS2SupYOff: 350
OS2StrikeYSize: 50
OS2StrikeYPos: 300
OS2CapHeight: 700
OS2XHeight: 500
OS2Vendor: 'UKWN'
OS2CodePages: 00000001.00000000
OS2UnicodeRanges: 00000000.00000000.00000000.00000000
DEI: 91125
ShortTable: maxp 16
  1
  0
  22
  213
  10
  0
  0
  1
  2
  30
  6
  0
  100
  0
  0
  0
EndShort
LangName: 1033 "" "" "" "1.000;UKWN;KAAlmouziosCombo-Regular" "" "Version 1.000" "" "" "" "Trevor Bullock" "" "" "" "This Font Software is licensed under the SIL Open Font License, Version 1.1. This license is available with a FAQ at: http://scripts.sil.org/OFL" "http://scripts.sil.org/OFL"
Encoding: UnicodeBmp
Compacted: 1
UnicodeInterp: none
NameList: AGL For New Fonts
DisplaySize: -128
AntiAlias: 1
FitToEm: 0
WinInfo: 0 14 6
BeginChars: 65537 22

StartChar: .notdef
Encoding: 65536 -1 0
Width: 500
GlyphClass: 1
Flags: W
LayerCount: 2
Back
SplineSet
410 -200 m 1,0,-1
 93 -200 l 1,1,-1
 93 800 l 1,2,-1
 410 800 l 1,3,-1
 410 -200 l 1,0,-1
168 733 m 1,4,-1
 168 700 l 1,5,-1
 233 700 l 1,6,-1
 233 663 l 1,7,-1
 167 663 l 1,8,-1
 167 630 l 1,9,-1
 333 630 l 1,10,-1
 333 663 l 1,11,-1
 267 663 l 1,12,-1
 267 700 l 1,13,-1
 333 700 l 1,14,-1
 333 733 l 1,15,-1
 168 733 l 1,4,-1
167 604 m 1,16,-1
 167 500 l 1,17,-1
 333 500 l 1,18,-1
 333 534 l 1,19,-1
 267 534 l 1,20,-1
 267 604 l 1,21,-1
 167 604 l 1,16,-1
233 534 m 1,22,-1
 200 534 l 1,23,-1
 200 570 l 1,24,-1
 233 570 l 1,25,-1
 233 534 l 1,22,-1
167 473 m 1,26,-1
 167 440 l 1,27,-1
 233 440 l 1,28,-1
 233 403 l 1,29,-1
 167 403 l 1,30,-1
 167 370 l 1,31,-1
 267 370 l 1,32,-1
 267 440 l 1,33,-1
 333 440 l 1,34,-1
 333 473 l 1,35,-1
 167 473 l 1,26,-1
300 413 m 1,36,-1
 300 347 l 1,37,-1
 167 347 l 1,38,-1
 167 313 l 1,39,-1
 333 313 l 1,40,-1
 333 413 l 1,41,-1
 300 413 l 1,36,-1
233 291 m 1,42,-1
 233 235 l 1,43,-1
 267 235 l 1,44,-1
 267 258 l 1,45,-1
 300 258 l 1,46,-1
 300 211 l 1,47,-1
 200 211 l 1,48,-1
 200 291 l 1,49,-1
 167 291 l 1,50,-1
 167 178 l 1,51,-1
 333 178 l 1,52,-1
 333 291 l 1,53,-1
 233 291 l 1,42,-1
167 118 m 1,54,-1
 167 5 l 1,55,-1
 333 5 l 1,56,-1
 333 118 l 1,57,-1
 167 118 l 1,54,-1
300 38 m 1,58,-1
 200 38 l 1,59,-1
 200 85 l 1,60,-1
 300 85 l 1,61,-1
 300 38 l 1,58,-1
167 -18 m 1,62,-1
 167 -51 l 1,63,-1
 237 -51 l 1,64,-1
 167 -98 l 1,65,-1
 167 -131 l 1,66,-1
 333 -131 l 1,67,-1
 333 -98 l 1,68,-1
 231 -98 l 1,69,-1
 301 -51 l 1,70,-1
 333 -51 l 1,71,-1
 333 -18 l 1,72,-1
 167 -18 l 1,62,-1
EndSplineSet
Fore
SplineSet
410 -200 m 1,0,-1
 93 -200 l 1,1,-1
 93 800 l 1,2,-1
 410 800 l 1,3,-1
 410 -200 l 1,0,-1
168 733 m 1,4,-1
 168 700 l 1,5,-1
 233 700 l 1,6,-1
 233 663 l 1,7,-1
 167 663 l 1,8,-1
 167 630 l 1,9,-1
 333 630 l 1,10,-1
 333 663 l 1,11,-1
 267 663 l 1,12,-1
 267 700 l 1,13,-1
 333 700 l 1,14,-1
 333 733 l 1,15,-1
 168 733 l 1,4,-1
167 604 m 1,16,-1
 167 500 l 1,17,-1
 333 500 l 1,18,-1
 333 534 l 1,19,-1
 267 534 l 1,20,-1
 267 604 l 1,21,-1
 167 604 l 1,16,-1
233 534 m 1,22,-1
 200 534 l 1,23,-1
 200 570 l 1,24,-1
 233 570 l 1,25,-1
 233 534 l 1,22,-1
167 473 m 1,26,-1
 167 440 l 1,27,-1
 233 440 l 1,28,-1
 233 403 l 1,29,-1
 167 403 l 1,30,-1
 167 370 l 1,31,-1
 267 370 l 1,32,-1
 267 440 l 1,33,-1
 333 440 l 1,34,-1
 333 473 l 1,35,-1
 167 473 l 1,26,-1
300 413 m 1,36,-1
 300 347 l 1,37,-1
 167 347 l 1,38,-1
 167 313 l 1,39,-1
 333 313 l 1,40,-1
 333 413 l 1,41,-1
 300 413 l 1,36,-1
233 291 m 1,42,-1
 233 235 l 1,43,-1
 267 235 l 1,44,-1
 267 258 l 1,45,-1
 300 258 l 1,46,-1
 300 211 l 1,47,-1
 200 211 l 1,48,-1
 200 291 l 1,49,-1
 167 291 l 1,50,-1
 167 178 l 1,51,-1
 333 178 l 1,52,-1
 333 291 l 1,53,-1
 233 291 l 1,42,-1
167 118 m 1,54,-1
 167 5 l 1,55,-1
 333 5 l 1,56,-1
 333 118 l 1,57,-1
 167 118 l 1,54,-1
300 38 m 1,58,-1
 200 38 l 1,59,-1
 200 85 l 1,60,-1
 300 85 l 1,61,-1
 300 38 l 1,58,-1
167 -18 m 1,62,-1
 167 -51 l 1,63,-1
 237 -51 l 1,64,-1
 167 -98 l 1,65,-1
 167 -131 l 1,66,-1
 333 -131 l 1,67,-1
 333 -98 l 1,68,-1
 231 -98 l 1,69,-1
 301 -51 l 1,70,-1
 333 -51 l 1,71,-1
 333 -18 l 1,72,-1
 167 -18 l 1,62,-1
EndSplineSet
EndChar

StartChar: C
Encoding: 67 67 2
Width: 1126
GlyphClass: 1
Flags: W
LayerCount: 2
Back
SplineSet
314.5 198.5 m 128,-1,1
 325 197 325 197 328.5 196.5 c 128,-1,2
 332 196 332 196 335 197 c 0,3,4
 340 198 340 198 344 206.5 c 128,-1,5
 348 215 348 215 348 223 c 0,6,7
 348 229 348 229 345 232 c 0,8,9
 340 237 340 237 322 240 c 0,10,11
 273 248 273 248 247 267.5 c 128,-1,12
 221 287 221 287 221 312 c 0,13,14
 221 355 221 355 279.5 378 c 128,-1,15
 338 401 338 401 448 401 c 0,16,17
 661 401 661 401 742 317 c 0,18,19
 766 292 766 292 766 279 c 0,20,21
 766 253 766 253 720 248 c 0,22,23
 699 246 699 246 690 243.5 c 128,-1,24
 681 241 681 241 678 236 c 0,25,26
 676 232 676 232 676 230 c 0,27,28
 676 226 676 226 687 218 c 256,29,30
 698 210 698 210 758.5 202 c 128,-1,31
 819 194 819 194 845 197 c 0,32,33
 883 201 883 201 900 206 c 128,-1,34
 917 211 917 211 924 221 c 128,-1,35
 931 231 931 231 931 252 c 0,36,37
 931 280 931 280 924 297 c 128,-1,38
 917 314 917 314 898 333 c 0,39,40
 830 401 830 401 638 427 c 0,41,42
 493 447 493 447 420 447 c 0,43,44
 360 447 360 447 301.5 437 c 128,-1,45
 243 427 243 427 173 403 c 0,46,47
 130 389 130 389 111 375 c 128,-1,48
 92 361 92 361 85 340 c 0,49,50
 81 328 81 328 81 311 c 0,51,52
 81 299 81 299 83 295 c 0,53,54
 96 265 96 265 147 241 c 128,-1,55
 198 217 198 217 286 203 c 0,56,0
 304 200 304 200 314.5 198.5 c 128,-1,1
499 185 m 0,58,59
 529 185 529 185 559.5 189.5 c 128,-1,60
 590 194 590 194 603 201 c 0,61,62
 630 215 630 215 630 237 c 0,63,64
 630 257 630 257 609 278.5 c 128,-1,65
 588 300 588 300 551 315 c 256,66,67
 514 330 514 330 446 347 c 128,-1,68
 378 364 378 364 351 364 c 0,69,70
 336 364 336 364 327 358 c 128,-1,71
 318 352 318 352 318 343 c 0,72,73
 318 335 318 335 323 329 c 0,74,75
 330 321 330 321 386 313 c 0,76,77
 441 306 441 306 467 291 c 128,-1,78
 493 276 493 276 496 250 c 0,79,80
 497 245 497 245 497 237 c 0,81,82
 497 228 497 228 492 225.5 c 128,-1,83
 487 223 487 223 471 221 c 0,84,85
 457 220 457 220 449 215 c 128,-1,86
 441 210 441 210 441 204 c 0,87,88
 441 194 441 194 459 189 c 0,89,57
 472 185 472 185 499 185 c 0,58,59
1083 -52 m 0,91,92
 1089 -52 1089 -52 1092.5 -46 c 128,-1,93
 1096 -40 1096 -40 1096 -31 c 256,94,95
 1096 -22 1096 -22 1092 -12.5 c 128,-1,96
 1088 -3 1088 -3 1080 3 c 0,97,98
 976 88 976 88 850 107 c 0,99,100
 827 111 827 111 774 111 c 0,101,102
 713 111 713 111 609 107 c 0,103,104
 479 104 479 104 370 104 c 0,105,106
 258 104 258 104 225 108 c 0,107,108
 92 125 92 125 56 145 c 0,109,110
 51 148 51 148 47 148 c 0,111,112
 39 148 39 148 34 139.5 c 128,-1,113
 29 131 29 131 30 118 c 0,114,115
 36 81 36 81 86 52.5 c 128,-1,116
 136 24 136 24 222 7 c 0,117,118
 319 -10 319 -10 418 -10 c 0,119,120
 447 -10 447 -10 462 -9 c 0,121,122
 582 -6 582 -6 755 -6 c 0,123,124
 840 -6 840 -6 856 -7 c 0,125,126
 951 -12 951 -12 1014 -28 c 0,127,128
 1032 -32 1032 -32 1051 -38.5 c 128,-1,129
 1070 -45 1070 -45 1075 -49 c 0,130,90
 1080 -52 1080 -52 1083 -52 c 0,91,92
EndSplineSet
Fore
SplineSet
314.5 198.5 m 128,-1,1
 325 197 325 197 328.5 196.5 c 128,-1,2
 332 196 332 196 335 197 c 0,3,4
 340 198 340 198 344 206.5 c 128,-1,5
 348 215 348 215 348 223 c 0,6,7
 348 229 348 229 345 232 c 0,8,9
 340 237 340 237 322 240 c 0,10,11
 273 248 273 248 247 267.5 c 128,-1,12
 221 287 221 287 221 312 c 0,13,14
 221 355 221 355 279.5 378 c 128,-1,15
 338 401 338 401 448 401 c 0,16,17
 661 401 661 401 742 317 c 0,18,19
 766 292 766 292 766 279 c 0,20,21
 766 253 766 253 720 248 c 0,22,23
 699 246 699 246 690 243.5 c 128,-1,24
 681 241 681 241 678 236 c 0,25,26
 676 232 676 232 676 230 c 0,27,28
 676 226 676 226 687 218 c 256,29,30
 698 210 698 210 758.5 202 c 128,-1,31
 819 194 819 194 845 197 c 0,32,33
 883 201 883 201 900 206 c 128,-1,34
 917 211 917 211 924 221 c 128,-1,35
 931 231 931 231 931 252 c 0,36,37
 931 280 931 280 924 297 c 128,-1,38
 917 314 917 314 898 333 c 0,39,40
 830 401 830 401 638 427 c 0,41,42
 493 447 493 447 420 447 c 0,43,44
 360 447 360 447 301.5 437 c 128,-1,45
 243 427 243 427 173 403 c 0,46,47
 130 389 130 389 111 375 c 128,-1,48
 92 361 92 361 85 340 c 0,49,50
 81 328 81 328 81 311 c 0,51,52
 81 299 81 299 83 295 c 0,53,54
 96 265 96 265 147 241 c 128,-1,55
 198 217 198 217 286 203 c 0,56,0
 304 200 304 200 314.5 198.5 c 128,-1,1
499 185 m 0,58,59
 529 185 529 185 559.5 189.5 c 128,-1,60
 590 194 590 194 603 201 c 0,61,62
 630 215 630 215 630 237 c 0,63,64
 630 257 630 257 609 278.5 c 128,-1,65
 588 300 588 300 551 315 c 256,66,67
 514 330 514 330 446 347 c 128,-1,68
 378 364 378 364 351 364 c 0,69,70
 336 364 336 364 327 358 c 128,-1,71
 318 352 318 352 318 343 c 0,72,73
 318 335 318 335 323 329 c 0,74,75
 330 321 330 321 386 313 c 0,76,77
 441 306 441 306 467 291 c 128,-1,78
 493 276 493 276 496 250 c 0,79,80
 497 245 497 245 497 237 c 0,81,82
 497 228 497 228 492 225.5 c 128,-1,83
 487 223 487 223 471 221 c 0,84,85
 457 220 457 220 449 215 c 128,-1,86
 441 210 441 210 441 204 c 0,87,88
 441 194 441 194 459 189 c 0,89,57
 472 185 472 185 499 185 c 0,58,59
1083 -52 m 0,91,92
 1089 -52 1089 -52 1092.5 -46 c 128,-1,93
 1096 -40 1096 -40 1096 -31 c 256,94,95
 1096 -22 1096 -22 1092 -12.5 c 128,-1,96
 1088 -3 1088 -3 1080 3 c 0,97,98
 976 88 976 88 850 107 c 0,99,100
 827 111 827 111 774 111 c 0,101,102
 713 111 713 111 609 107 c 0,103,104
 479 104 479 104 370 104 c 0,105,106
 258 104 258 104 225 108 c 0,107,108
 92 125 92 125 56 145 c 0,109,110
 51 148 51 148 47 148 c 0,111,112
 39 148 39 148 34 139.5 c 128,-1,113
 29 131 29 131 30 118 c 0,114,115
 36 81 36 81 86 52.5 c 128,-1,116
 136 24 136 24 222 7 c 0,117,118
 319 -10 319 -10 418 -10 c 0,119,120
 447 -10 447 -10 462 -9 c 0,121,122
 582 -6 582 -6 755 -6 c 0,123,124
 840 -6 840 -6 856 -7 c 0,125,126
 951 -12 951 -12 1014 -28 c 0,127,128
 1032 -32 1032 -32 1051 -38.5 c 128,-1,129
 1070 -45 1070 -45 1075 -49 c 0,130,90
 1080 -52 1080 -52 1083 -52 c 0,91,92
EndSplineSet
EndChar

StartChar: V
Encoding: 86 86 3
Width: 1256
GlyphClass: 1
Flags: W
LayerCount: 2
Back
SplineSet
657 230 m 128,-1,1
 675 255 675 255 679 282 c 0,2,3
 679 285 679 285 691 285 c 2,4,-1
 731 284 l 2,5,6
 751 283 751 283 863 279 c 0,7,8
 984 276 984 276 1023 273.5 c 128,-1,9
 1062 271 1062 271 1082 263 c 0,10,11
 1106 254 1106 254 1117 254 c 0,12,13
 1134 254 1134 254 1134 276 c 256,14,15
 1134 298 1134 298 1107 312 c 128,-1,16
 1080 326 1080 326 1019 334 c 128,-1,17
 958 342 958 342 851 347 c 0,18,19
 794 350 794 350 746.5 354 c 128,-1,20
 699 358 699 358 684 360 c 0,21,22
 682 362 682 362 682 365 c 2,23,-1
 685 386 l 2,24,25
 687 394 687 394 689 396.5 c 128,-1,26
 691 399 691 399 695.5 400.5 c 128,-1,27
 700 402 700 402 703 407 c 0,28,29
 709 418 709 418 709 427 c 0,30,31
 709 440 709 440 692 447 c 128,-1,32
 675 454 675 454 634 456 c 0,33,34
 577 459 577 459 576 396 c 0,35,36
 576 389 576 389 576 382 c 128,-1,37
 576 375 576 375 575 371.5 c 128,-1,38
 574 368 574 368 572 368 c 0,39,40
 548 368 548 368 531 371 c 0,41,42
 459 382 459 382 407.5 426 c 128,-1,43
 356 470 356 470 337 537 c 0,44,45
 321 595 321 595 271.5 633 c 128,-1,46
 222 671 222 671 145 684 c 0,47,48
 94 693 94 693 67 693 c 0,49,50
 30 693 30 693 30 674 c 0,51,52
 30 667 30 667 35 654 c 0,53,54
 42 639 42 639 51 634.5 c 128,-1,55
 60 630 60 630 86 630 c 0,56,57
 124 630 124 630 147.5 605 c 128,-1,58
 171 580 171 580 196 511 c 0,59,60
 222 441 222 441 263.5 402 c 128,-1,61
 305 363 305 363 377 338 c 0,62,63
 404 329 404 329 438.5 321.5 c 128,-1,64
 473 314 473 314 494 311 c 0,65,66
 530 306 530 306 531 306 c 0,67,68
 547 305 547 305 556 303.5 c 128,-1,69
 565 302 565 302 565 299 c 0,70,71
 565 290 565 290 556 267 c 0,72,73
 553 261 553 261 546.5 246 c 128,-1,74
 540 231 540 231 540 225 c 256,75,76
 540 219 540 219 544.5 216.5 c 128,-1,77
 549 214 549 214 557 212 c 128,-1,78
 565 210 565 210 569 209 c 0,79,80
 593 203 593 203 624 204 c 0,81,0
 639 205 639 205 657 230 c 128,-1,1
1213 -52 m 0,83,84
 1219 -52 1219 -52 1222.5 -46 c 128,-1,85
 1226 -40 1226 -40 1226 -31 c 256,86,87
 1226 -22 1226 -22 1222 -12.5 c 128,-1,88
 1218 -3 1218 -3 1210 3 c 0,89,90
 1106 88 1106 88 980 107 c 0,91,92
 957 111 957 111 904 111 c 0,93,94
 843 111 843 111 739 107 c 0,95,96
 609 104 609 104 500 104 c 0,97,98
 388 104 388 104 355 108 c 0,99,100
 222 125 222 125 186 145 c 0,101,102
 182 148 182 148 177 148 c 0,103,104
 169 148 169 148 164 139.5 c 128,-1,105
 159 131 159 131 160 118 c 0,106,107
 166 81 166 81 216 52.5 c 128,-1,108
 266 24 266 24 352 7 c 0,109,110
 449 -10 449 -10 548 -10 c 0,111,112
 577 -10 577 -10 592 -9 c 0,113,114
 712 -6 712 -6 885 -6 c 0,115,116
 970 -6 970 -6 986 -7 c 0,117,118
 1081 -12 1081 -12 1144 -28 c 0,119,120
 1162 -32 1162 -32 1181 -38.5 c 128,-1,121
 1200 -45 1200 -45 1205 -49 c 0,122,82
 1210 -52 1210 -52 1213 -52 c 0,83,84
EndSplineSet
Fore
SplineSet
657 230 m 128,-1,1
 675 255 675 255 679 282 c 0,2,3
 679 285 679 285 691 285 c 2,4,-1
 731 284 l 2,5,6
 751 283 751 283 863 279 c 0,7,8
 984 276 984 276 1023 273.5 c 128,-1,9
 1062 271 1062 271 1082 263 c 0,10,11
 1106 254 1106 254 1117 254 c 0,12,13
 1134 254 1134 254 1134 276 c 256,14,15
 1134 298 1134 298 1107 312 c 128,-1,16
 1080 326 1080 326 1019 334 c 128,-1,17
 958 342 958 342 851 347 c 0,18,19
 794 350 794 350 746.5 354 c 128,-1,20
 699 358 699 358 684 360 c 0,21,22
 682 362 682 362 682 365 c 2,23,-1
 685 386 l 2,24,25
 687 394 687 394 689 396.5 c 128,-1,26
 691 399 691 399 695.5 400.5 c 128,-1,27
 700 402 700 402 703 407 c 0,28,29
 709 418 709 418 709 427 c 0,30,31
 709 440 709 440 692 447 c 128,-1,32
 675 454 675 454 634 456 c 0,33,34
 577 459 577 459 576 396 c 0,35,36
 576 389 576 389 576 382 c 128,-1,37
 576 375 576 375 575 371.5 c 128,-1,38
 574 368 574 368 572 368 c 0,39,40
 548 368 548 368 531 371 c 0,41,42
 459 382 459 382 407.5 426 c 128,-1,43
 356 470 356 470 337 537 c 0,44,45
 321 595 321 595 271.5 633 c 128,-1,46
 222 671 222 671 145 684 c 0,47,48
 94 693 94 693 67 693 c 0,49,50
 30 693 30 693 30 674 c 0,51,52
 30 667 30 667 35 654 c 0,53,54
 42 639 42 639 51 634.5 c 128,-1,55
 60 630 60 630 86 630 c 0,56,57
 124 630 124 630 147.5 605 c 128,-1,58
 171 580 171 580 196 511 c 0,59,60
 222 441 222 441 263.5 402 c 128,-1,61
 305 363 305 363 377 338 c 0,62,63
 404 329 404 329 438.5 321.5 c 128,-1,64
 473 314 473 314 494 311 c 0,65,66
 530 306 530 306 531 306 c 0,67,68
 547 305 547 305 556 303.5 c 128,-1,69
 565 302 565 302 565 299 c 0,70,71
 565 290 565 290 556 267 c 0,72,73
 553 261 553 261 546.5 246 c 128,-1,74
 540 231 540 231 540 225 c 256,75,76
 540 219 540 219 544.5 216.5 c 128,-1,77
 549 214 549 214 557 212 c 128,-1,78
 565 210 565 210 569 209 c 0,79,80
 593 203 593 203 624 204 c 0,81,0
 639 205 639 205 657 230 c 128,-1,1
1213 -52 m 0,83,84
 1219 -52 1219 -52 1222.5 -46 c 128,-1,85
 1226 -40 1226 -40 1226 -31 c 256,86,87
 1226 -22 1226 -22 1222 -12.5 c 128,-1,88
 1218 -3 1218 -3 1210 3 c 0,89,90
 1106 88 1106 88 980 107 c 0,91,92
 957 111 957 111 904 111 c 0,93,94
 843 111 843 111 739 107 c 0,95,96
 609 104 609 104 500 104 c 0,97,98
 388 104 388 104 355 108 c 0,99,100
 222 125 222 125 186 145 c 0,101,102
 182 148 182 148 177 148 c 0,103,104
 169 148 169 148 164 139.5 c 128,-1,105
 159 131 159 131 160 118 c 0,106,107
 166 81 166 81 216 52.5 c 128,-1,108
 266 24 266 24 352 7 c 0,109,110
 449 -10 449 -10 548 -10 c 0,111,112
 577 -10 577 -10 592 -9 c 0,113,114
 712 -6 712 -6 885 -6 c 0,115,116
 970 -6 970 -6 986 -7 c 0,117,118
 1081 -12 1081 -12 1144 -28 c 0,119,120
 1162 -32 1162 -32 1181 -38.5 c 128,-1,121
 1200 -45 1200 -45 1205 -49 c 0,122,82
 1210 -52 1210 -52 1213 -52 c 0,83,84
EndSplineSet
EndChar

StartChar: X
Encoding: 88 88 4
Width: 1126
GlyphClass: 1
Flags: W
LayerCount: 2
Back
SplineSet
521 201 m 0,1,2
 592 201 592 201 641 216 c 0,3,4
 730 243 730 243 730 281 c 0,5,6
 730 302 730 302 701 329 c 256,7,8
 672 356 672 356 582.5 384.5 c 128,-1,9
 493 413 493 413 389 432 c 128,-1,10
 285 451 285 451 219 451 c 0,11,12
 159 451 159 451 153 434 c 0,13,14
 149 425 149 425 149 416 c 0,15,16
 149 398 149 398 177.5 390.5 c 128,-1,17
 206 383 206 383 281 379 c 0,18,19
 378 374 378 374 428.5 362.5 c 128,-1,20
 479 351 479 351 501 329 c 0,21,22
 521 309 521 309 521 295 c 0,23,24
 521 273 521 273 473 264 c 0,25,26
 448 260 448 260 434 251 c 128,-1,27
 420 242 420 242 420 232 c 0,28,29
 420 220 420 220 442 211 c 0,30,0
 466 201 466 201 521 201 c 0,1,2
1083 -52 m 0,32,33
 1089 -52 1089 -52 1092.5 -46 c 128,-1,34
 1096 -40 1096 -40 1096 -31 c 256,35,36
 1096 -22 1096 -22 1092 -12.5 c 128,-1,37
 1088 -3 1088 -3 1080 3 c 0,38,39
 976 88 976 88 850 107 c 0,40,41
 827 111 827 111 774 111 c 0,42,43
 713 111 713 111 609 107 c 0,44,45
 479 104 479 104 370 104 c 0,46,47
 258 104 258 104 225 108 c 0,48,49
 92 125 92 125 56 145 c 0,50,51
 51 148 51 148 47 148 c 0,52,53
 39 148 39 148 34 139.5 c 128,-1,54
 29 131 29 131 30 118 c 0,55,56
 36 81 36 81 86 52.5 c 128,-1,57
 136 24 136 24 222 7 c 0,58,59
 319 -10 319 -10 418 -10 c 0,60,61
 447 -10 447 -10 462 -9 c 0,62,63
 582 -6 582 -6 755 -6 c 0,64,65
 840 -6 840 -6 856 -7 c 0,66,67
 951 -12 951 -12 1014 -28 c 0,68,69
 1032 -32 1032 -32 1051 -38.5 c 128,-1,70
 1070 -45 1070 -45 1075 -49 c 0,71,31
 1080 -52 1080 -52 1083 -52 c 0,32,33
EndSplineSet
Fore
SplineSet
521 201 m 0,1,2
 592 201 592 201 641 216 c 0,3,4
 730 243 730 243 730 281 c 0,5,6
 730 302 730 302 701 329 c 256,7,8
 672 356 672 356 582.5 384.5 c 128,-1,9
 493 413 493 413 389 432 c 128,-1,10
 285 451 285 451 219 451 c 0,11,12
 159 451 159 451 153 434 c 0,13,14
 149 425 149 425 149 416 c 0,15,16
 149 398 149 398 177.5 390.5 c 128,-1,17
 206 383 206 383 281 379 c 0,18,19
 378 374 378 374 428.5 362.5 c 128,-1,20
 479 351 479 351 501 329 c 0,21,22
 521 309 521 309 521 295 c 0,23,24
 521 273 521 273 473 264 c 0,25,26
 448 260 448 260 434 251 c 128,-1,27
 420 242 420 242 420 232 c 0,28,29
 420 220 420 220 442 211 c 0,30,0
 466 201 466 201 521 201 c 0,1,2
1083 -52 m 0,32,33
 1089 -52 1089 -52 1092.5 -46 c 128,-1,34
 1096 -40 1096 -40 1096 -31 c 256,35,36
 1096 -22 1096 -22 1092 -12.5 c 128,-1,37
 1088 -3 1088 -3 1080 3 c 0,38,39
 976 88 976 88 850 107 c 0,40,41
 827 111 827 111 774 111 c 0,42,43
 713 111 713 111 609 107 c 0,44,45
 479 104 479 104 370 104 c 0,46,47
 258 104 258 104 225 108 c 0,48,49
 92 125 92 125 56 145 c 0,50,51
 51 148 51 148 47 148 c 0,52,53
 39 148 39 148 34 139.5 c 128,-1,54
 29 131 29 131 30 118 c 0,55,56
 36 81 36 81 86 52.5 c 128,-1,57
 136 24 136 24 222 7 c 0,58,59
 319 -10 319 -10 418 -10 c 0,60,61
 447 -10 447 -10 462 -9 c 0,62,63
 582 -6 582 -6 755 -6 c 0,64,65
 840 -6 840 -6 856 -7 c 0,66,67
 951 -12 951 -12 1014 -28 c 0,68,69
 1032 -32 1032 -32 1051 -38.5 c 128,-1,70
 1070 -45 1070 -45 1075 -49 c 0,71,31
 1080 -52 1080 -52 1083 -52 c 0,32,33
EndSplineSet
EndChar

StartChar: c
Encoding: 99 99 5
Width: 1126
GlyphClass: 1
Flags: W
LayerCount: 2
Back
SplineSet
314.5 187.5 m 128,-1,1
 325 186 325 186 328.5 185.5 c 128,-1,2
 332 185 332 185 335 186 c 0,3,4
 340 188 340 188 344 196 c 128,-1,5
 348 204 348 204 348 212 c 0,6,7
 348 218 348 218 345 221 c 0,8,9
 340 226 340 226 322 229 c 0,10,11
 272 238 272 238 246.5 257.5 c 128,-1,12
 221 277 221 277 221 302 c 0,13,14
 221 345 221 345 280 367.5 c 128,-1,15
 339 390 339 390 448 390 c 0,16,17
 664 390 664 390 742 306 c 0,18,19
 757 291 757 291 762.5 282.5 c 128,-1,20
 768 274 768 274 766 266 c 0,21,22
 765 242 765 242 720 237 c 0,23,24
 700 235 700 235 691 232.5 c 128,-1,25
 682 230 682 230 678 225 c 0,26,27
 676 221 676 221 676 219 c 0,28,29
 676 214 676 214 687 207 c 0,30,31
 699 199 699 199 759.5 190.5 c 128,-1,32
 820 182 820 182 845 186 c 0,33,34
 884 191 884 191 900.5 195.5 c 128,-1,35
 917 200 917 200 924 210 c 128,-1,36
 931 220 931 220 931 242 c 0,37,38
 931 270 931 270 924 287 c 128,-1,39
 917 304 917 304 898 323 c 0,40,41
 830 391 830 391 638 416 c 0,42,43
 499 435 499 435 419 435 c 0,44,45
 359 435 359 435 301 425 c 128,-1,46
 243 415 243 415 173 392 c 0,47,48
 131 379 131 379 111 364.5 c 128,-1,49
 91 350 91 350 85 330 c 0,50,51
 81 317 81 317 81 301 c 0,52,53
 81 265 81 265 133.5 236 c 128,-1,54
 186 207 186 207 286 192 c 0,55,0
 304 189 304 189 314.5 187.5 c 128,-1,1
1083 -52 m 0,57,58
 1089 -52 1089 -52 1092.5 -46 c 128,-1,59
 1096 -40 1096 -40 1096 -31 c 256,60,61
 1096 -22 1096 -22 1092 -12.5 c 128,-1,62
 1088 -3 1088 -3 1080 3 c 0,63,64
 976 88 976 88 850 107 c 0,65,66
 827 111 827 111 774 111 c 0,67,68
 713 111 713 111 609 107 c 0,69,70
 479 104 479 104 370 104 c 0,71,72
 258 104 258 104 225 108 c 0,73,74
 92 125 92 125 56 145 c 0,75,76
 51 148 51 148 47 148 c 0,77,78
 39 148 39 148 34 139.5 c 128,-1,79
 29 131 29 131 30 118 c 0,80,81
 36 81 36 81 86 52.5 c 128,-1,82
 136 24 136 24 222 7 c 0,83,84
 319 -10 319 -10 418 -10 c 0,85,86
 447 -10 447 -10 462 -9 c 0,87,88
 582 -6 582 -6 755 -6 c 0,89,90
 840 -6 840 -6 856 -7 c 0,91,92
 951 -12 951 -12 1014 -28 c 0,93,94
 1032 -32 1032 -32 1051 -38.5 c 128,-1,95
 1070 -45 1070 -45 1075 -49 c 0,96,56
 1080 -52 1080 -52 1083 -52 c 0,57,58
EndSplineSet
Fore
SplineSet
314.5 187.5 m 128,-1,1
 325 186 325 186 328.5 185.5 c 128,-1,2
 332 185 332 185 335 186 c 0,3,4
 340 188 340 188 344 196 c 128,-1,5
 348 204 348 204 348 212 c 0,6,7
 348 218 348 218 345 221 c 0,8,9
 340 226 340 226 322 229 c 0,10,11
 272 238 272 238 246.5 257.5 c 128,-1,12
 221 277 221 277 221 302 c 0,13,14
 221 345 221 345 280 367.5 c 128,-1,15
 339 390 339 390 448 390 c 0,16,17
 664 390 664 390 742 306 c 0,18,19
 757 291 757 291 762.5 282.5 c 128,-1,20
 768 274 768 274 766 266 c 0,21,22
 765 242 765 242 720 237 c 0,23,24
 700 235 700 235 691 232.5 c 128,-1,25
 682 230 682 230 678 225 c 0,26,27
 676 221 676 221 676 219 c 0,28,29
 676 214 676 214 687 207 c 0,30,31
 699 199 699 199 759.5 190.5 c 128,-1,32
 820 182 820 182 845 186 c 0,33,34
 884 191 884 191 900.5 195.5 c 128,-1,35
 917 200 917 200 924 210 c 128,-1,36
 931 220 931 220 931 242 c 0,37,38
 931 270 931 270 924 287 c 128,-1,39
 917 304 917 304 898 323 c 0,40,41
 830 391 830 391 638 416 c 0,42,43
 499 435 499 435 419 435 c 0,44,45
 359 435 359 435 301 425 c 128,-1,46
 243 415 243 415 173 392 c 0,47,48
 131 379 131 379 111 364.5 c 128,-1,49
 91 350 91 350 85 330 c 0,50,51
 81 317 81 317 81 301 c 0,52,53
 81 265 81 265 133.5 236 c 128,-1,54
 186 207 186 207 286 192 c 0,55,0
 304 189 304 189 314.5 187.5 c 128,-1,1
1083 -52 m 0,57,58
 1089 -52 1089 -52 1092.5 -46 c 128,-1,59
 1096 -40 1096 -40 1096 -31 c 256,60,61
 1096 -22 1096 -22 1092 -12.5 c 128,-1,62
 1088 -3 1088 -3 1080 3 c 0,63,64
 976 88 976 88 850 107 c 0,65,66
 827 111 827 111 774 111 c 0,67,68
 713 111 713 111 609 107 c 0,69,70
 479 104 479 104 370 104 c 0,71,72
 258 104 258 104 225 108 c 0,73,74
 92 125 92 125 56 145 c 0,75,76
 51 148 51 148 47 148 c 0,77,78
 39 148 39 148 34 139.5 c 128,-1,79
 29 131 29 131 30 118 c 0,80,81
 36 81 36 81 86 52.5 c 128,-1,82
 136 24 136 24 222 7 c 0,83,84
 319 -10 319 -10 418 -10 c 0,85,86
 447 -10 447 -10 462 -9 c 0,87,88
 582 -6 582 -6 755 -6 c 0,89,90
 840 -6 840 -6 856 -7 c 0,91,92
 951 -12 951 -12 1014 -28 c 0,93,94
 1032 -32 1032 -32 1051 -38.5 c 128,-1,95
 1070 -45 1070 -45 1075 -49 c 0,96,56
 1080 -52 1080 -52 1083 -52 c 0,57,58
EndSplineSet
EndChar

StartChar: i
Encoding: 105 105 6
Width: 1286
GlyphClass: 1
Flags: W
LayerCount: 2
Back
SplineSet
306 172 m 0,1,2
 325 172 325 172 323 184 c 0,3,4
 322 194 322 194 282.5 216 c 128,-1,5
 243 238 243 238 205 249 c 2,6,-1
 162 262 l 1,7,-1
 196 269 l 2,8,9
 256 282 256 282 312 324 c 128,-1,10
 368 366 368 366 386 412 c 0,11,12
 390 423 390 423 395 461 c 128,-1,13
 400 499 400 499 402 541 c 0,14,15
 406 615 406 615 416.5 649 c 128,-1,16
 427 683 427 683 450 696 c 0,17,18
 462 704 462 704 462 725 c 0,19,20
 462 739 462 739 456.5 752.5 c 128,-1,21
 451 766 451 766 441 773 c 0,22,23
 423 787 423 787 402 787 c 0,24,25
 383 787 383 787 358 774 c 0,26,27
 326 757 326 757 307 709.5 c 128,-1,28
 288 662 288 662 281 573 c 0,29,30
 272 469 272 469 247.5 417.5 c 128,-1,31
 223 366 223 366 168 334 c 0,32,33
 146 321 146 321 119 310.5 c 128,-1,34
 92 300 92 300 74 297 c 2,35,-1
 30 290 l 1,36,-1
 215 201 l 2,37,0
 278 172 278 172 306 172 c 0,1,2
622 172 m 0,39,40
 649 172 649 172 657 176 c 0,41,42
 668 180 668 180 668 189 c 0,43,44
 668 199 668 199 656 203 c 0,45,46
 645 207 645 207 637 223 c 128,-1,47
 629 239 629 239 613 293 c 0,48,49
 602 330 602 330 592 348 c 128,-1,50
 582 366 582 366 567 374 c 128,-1,51
 552 382 552 382 525 386 c 0,52,53
 506 389 506 389 488 389 c 0,54,55
 467 389 467 389 452.5 385 c 128,-1,56
 438 381 438 381 435 374 c 2,57,-1
 435 372 l 2,58,59
 435 369 435 369 439 365 c 128,-1,60
 443 361 443 361 450 359 c 0,61,62
 463 354 463 354 471 338 c 128,-1,63
 479 322 479 322 496 266 c 0,64,65
 508 226 508 226 522.5 206 c 128,-1,66
 537 186 537 186 561 179 c 0,67,38
 582 172 582 172 622 172 c 0,39,40
822 172 m 0,69,70
 849 172 849 172 857 176 c 0,71,72
 868 180 868 180 868 189 c 0,73,74
 868 199 868 199 856 203 c 0,75,76
 845 207 845 207 837 223 c 128,-1,77
 829 239 829 239 813 293 c 0,78,79
 802 330 802 330 792 348 c 128,-1,80
 782 366 782 366 767 374 c 128,-1,81
 752 382 752 382 725 386 c 0,82,83
 706 389 706 389 688 389 c 0,84,85
 667 389 667 389 652.5 385 c 128,-1,86
 638 381 638 381 635 374 c 2,87,-1
 635 372 l 2,88,89
 635 369 635 369 639 365 c 128,-1,90
 643 361 643 361 650 359 c 0,91,92
 663 354 663 354 671 338 c 128,-1,93
 679 322 679 322 696 266 c 0,94,95
 708 226 708 226 722.5 206 c 128,-1,96
 737 186 737 186 761 179 c 0,97,68
 782 172 782 172 822 172 c 0,69,70
1244 -52 m 0,99,100
 1250 -52 1250 -52 1253 -46.5 c 128,-1,101
 1256 -41 1256 -41 1256 -32 c 0,102,103
 1256 -9 1256 -9 1241 3 c 0,104,105
 1141 88 1141 88 1011 107 c 0,106,107
 987 110 987 110 886 110 c 0,108,109
 770 110 770 110 640 107 c 0,110,111
 509 104 509 104 401 104 c 0,112,113
 289 104 289 104 256 108 c 0,114,115
 120 125 120 125 87 145 c 0,116,117
 83 148 83 148 77 148 c 0,118,119
 68 148 68 148 63.5 139.5 c 128,-1,120
 59 131 59 131 61 118 c 0,121,122
 68 80 68 80 118 51 c 128,-1,123
 168 22 168 22 253 7 c 0,124,125
 348 -9 348 -9 456 -9 c 2,126,-1
 493 -9 l 2,127,128
 613 -6 613 -6 880 -6 c 0,129,130
 1001 -6 1001 -6 1017 -7 c 0,131,132
 1119 -14 1119 -14 1175 -28 c 0,133,134
 1193 -32 1193 -32 1212 -38.5 c 128,-1,135
 1231 -45 1231 -45 1236 -49 c 0,136,98
 1241 -52 1241 -52 1244 -52 c 0,99,100
EndSplineSet
Fore
SplineSet
306 172 m 0,1,2
 325 172 325 172 323 184 c 0,3,4
 322 194 322 194 282.5 216 c 128,-1,5
 243 238 243 238 205 249 c 2,6,-1
 162 262 l 1,7,-1
 196 269 l 2,8,9
 256 282 256 282 312 324 c 128,-1,10
 368 366 368 366 386 412 c 0,11,12
 390 423 390 423 395 461 c 128,-1,13
 400 499 400 499 402 541 c 0,14,15
 406 615 406 615 416.5 649 c 128,-1,16
 427 683 427 683 450 696 c 0,17,18
 462 704 462 704 462 725 c 0,19,20
 462 739 462 739 456.5 752.5 c 128,-1,21
 451 766 451 766 441 773 c 0,22,23
 423 787 423 787 402 787 c 0,24,25
 383 787 383 787 358 774 c 0,26,27
 326 757 326 757 307 709.5 c 128,-1,28
 288 662 288 662 281 573 c 0,29,30
 272 469 272 469 247.5 417.5 c 128,-1,31
 223 366 223 366 168 334 c 0,32,33
 146 321 146 321 119 310.5 c 128,-1,34
 92 300 92 300 74 297 c 2,35,-1
 30 290 l 1,36,-1
 215 201 l 2,37,0
 278 172 278 172 306 172 c 0,1,2
622 172 m 0,39,40
 649 172 649 172 657 176 c 0,41,42
 668 180 668 180 668 189 c 0,43,44
 668 199 668 199 656 203 c 0,45,46
 645 207 645 207 637 223 c 128,-1,47
 629 239 629 239 613 293 c 0,48,49
 602 330 602 330 592 348 c 128,-1,50
 582 366 582 366 567 374 c 128,-1,51
 552 382 552 382 525 386 c 0,52,53
 506 389 506 389 488 389 c 0,54,55
 467 389 467 389 452.5 385 c 128,-1,56
 438 381 438 381 435 374 c 2,57,-1
 435 372 l 2,58,59
 435 369 435 369 439 365 c 128,-1,60
 443 361 443 361 450 359 c 0,61,62
 463 354 463 354 471 338 c 128,-1,63
 479 322 479 322 496 266 c 0,64,65
 508 226 508 226 522.5 206 c 128,-1,66
 537 186 537 186 561 179 c 0,67,38
 582 172 582 172 622 172 c 0,39,40
822 172 m 0,69,70
 849 172 849 172 857 176 c 0,71,72
 868 180 868 180 868 189 c 0,73,74
 868 199 868 199 856 203 c 0,75,76
 845 207 845 207 837 223 c 128,-1,77
 829 239 829 239 813 293 c 0,78,79
 802 330 802 330 792 348 c 128,-1,80
 782 366 782 366 767 374 c 128,-1,81
 752 382 752 382 725 386 c 0,82,83
 706 389 706 389 688 389 c 0,84,85
 667 389 667 389 652.5 385 c 128,-1,86
 638 381 638 381 635 374 c 2,87,-1
 635 372 l 2,88,89
 635 369 635 369 639 365 c 128,-1,90
 643 361 643 361 650 359 c 0,91,92
 663 354 663 354 671 338 c 128,-1,93
 679 322 679 322 696 266 c 0,94,95
 708 226 708 226 722.5 206 c 128,-1,96
 737 186 737 186 761 179 c 0,97,68
 782 172 782 172 822 172 c 0,69,70
1244 -52 m 0,99,100
 1250 -52 1250 -52 1253 -46.5 c 128,-1,101
 1256 -41 1256 -41 1256 -32 c 0,102,103
 1256 -9 1256 -9 1241 3 c 0,104,105
 1141 88 1141 88 1011 107 c 0,106,107
 987 110 987 110 886 110 c 0,108,109
 770 110 770 110 640 107 c 0,110,111
 509 104 509 104 401 104 c 0,112,113
 289 104 289 104 256 108 c 0,114,115
 120 125 120 125 87 145 c 0,116,117
 83 148 83 148 77 148 c 0,118,119
 68 148 68 148 63.5 139.5 c 128,-1,120
 59 131 59 131 61 118 c 0,121,122
 68 80 68 80 118 51 c 128,-1,123
 168 22 168 22 253 7 c 0,124,125
 348 -9 348 -9 456 -9 c 2,126,-1
 493 -9 l 2,127,128
 613 -6 613 -6 880 -6 c 0,129,130
 1001 -6 1001 -6 1017 -7 c 0,131,132
 1119 -14 1119 -14 1175 -28 c 0,133,134
 1193 -32 1193 -32 1212 -38.5 c 128,-1,135
 1231 -45 1231 -45 1236 -49 c 0,136,98
 1241 -52 1241 -52 1244 -52 c 0,99,100
EndSplineSet
EndChar

StartChar: s
Encoding: 115 115 7
Width: 0
GlyphClass: 1
Flags: W
LayerCount: 2
Back
SplineSet
-598 469 m 0,1,2
 -553 469 -553 469 -537 472 c 128,-1,3
 -521 475 -521 475 -510 486 c 0,4,5
 -494 502 -494 502 -494 529 c 0,6,7
 -494 542 -494 542 -499 559 c 0,8,9
 -506 578 -506 578 -536 588 c 128,-1,10
 -566 598 -566 598 -615 598 c 0,11,12
 -684 598 -684 598 -684 577 c 0,13,14
 -684 566 -684 566 -664 549 c 0,15,16
 -650 538 -650 538 -650 530 c 0,17,18
 -650 524 -650 524 -664 524 c 0,19,20
 -683 524 -683 524 -722 535 c 128,-1,21
 -761 546 -761 546 -810 566 c 0,22,23
 -830 575 -830 575 -847 581 c 128,-1,24
 -864 587 -864 587 -871 587 c 0,25,26
 -882 587 -882 587 -882 576 c 0,27,28
 -882 570 -882 570 -879 559 c 0,29,30
 -872 531 -872 531 -828 509 c 128,-1,31
 -784 487 -784 487 -709 477 c 0,32,0
 -650 469 -650 469 -598 469 c 0,1,2
EndSplineSet
Fore
SplineSet
-598 469 m 0,1,2
 -553 469 -553 469 -537 472 c 128,-1,3
 -521 475 -521 475 -510 486 c 0,4,5
 -494 502 -494 502 -494 529 c 0,6,7
 -494 542 -494 542 -499 559 c 0,8,9
 -506 578 -506 578 -536 588 c 128,-1,10
 -566 598 -566 598 -615 598 c 0,11,12
 -684 598 -684 598 -684 577 c 0,13,14
 -684 566 -684 566 -664 549 c 0,15,16
 -650 538 -650 538 -650 530 c 0,17,18
 -650 524 -650 524 -664 524 c 0,19,20
 -683 524 -683 524 -722 535 c 128,-1,21
 -761 546 -761 546 -810 566 c 0,22,23
 -830 575 -830 575 -847 581 c 128,-1,24
 -864 587 -864 587 -871 587 c 0,25,26
 -882 587 -882 587 -882 576 c 0,27,28
 -882 570 -882 570 -879 559 c 0,29,30
 -872 531 -872 531 -828 509 c 128,-1,31
 -784 487 -784 487 -709 477 c 0,32,0
 -650 469 -650 469 -598 469 c 0,1,2
EndSplineSet
EndChar

StartChar: u
Encoding: 117 117 8
Width: 1282
GlyphClass: 1
Flags: W
LayerCount: 2
Back
SplineSet
1096 172 m 0,1,2
 1115 172 1115 172 1113 184 c 0,3,4
 1112 194 1112 194 1072.5 216 c 128,-1,5
 1033 238 1033 238 995 249 c 2,6,-1
 952 262 l 1,7,-1
 986 269 l 2,8,9
 1046 282 1046 282 1102 324 c 128,-1,10
 1158 366 1158 366 1176 412 c 0,11,12
 1180 423 1180 423 1185 461 c 128,-1,13
 1190 499 1190 499 1192 541 c 0,14,15
 1196 615 1196 615 1206.5 649 c 128,-1,16
 1217 683 1217 683 1240 696 c 0,17,18
 1252 704 1252 704 1252 725 c 0,19,20
 1252 739 1252 739 1246.5 752.5 c 128,-1,21
 1241 766 1241 766 1231 773 c 0,22,23
 1213 787 1213 787 1192 787 c 0,24,25
 1173 787 1173 787 1148 774 c 0,26,27
 1116 757 1116 757 1097 709.5 c 128,-1,28
 1078 662 1078 662 1071 573 c 0,29,30
 1062 469 1062 469 1037.5 417.5 c 128,-1,31
 1013 366 1013 366 958 334 c 0,32,33
 936 321 936 321 909 310.5 c 128,-1,34
 882 300 882 300 864 297 c 2,35,-1
 820 290 l 1,36,-1
 1005 201 l 2,37,0
 1068 172 1068 172 1096 172 c 0,1,2
562 172 m 0,39,40
 589 172 589 172 597 176 c 0,41,42
 608 180 608 180 608 189 c 0,43,44
 608 199 608 199 596 203 c 0,45,46
 585 207 585 207 577 223 c 128,-1,47
 569 239 569 239 553 293 c 0,48,49
 542 330 542 330 532 348 c 128,-1,50
 522 366 522 366 507 374 c 128,-1,51
 492 382 492 382 465 386 c 0,52,53
 446 389 446 389 428 389 c 0,54,55
 407 389 407 389 392.5 385 c 128,-1,56
 378 381 378 381 375 374 c 2,57,-1
 375 372 l 2,58,59
 375 369 375 369 379 365 c 128,-1,60
 383 361 383 361 390 359 c 0,61,62
 403 354 403 354 411 338 c 128,-1,63
 419 322 419 322 436 266 c 0,64,65
 448 226 448 226 462.5 206 c 128,-1,66
 477 186 477 186 501 179 c 0,67,38
 522 172 522 172 562 172 c 0,39,40
762 172 m 0,69,70
 789 172 789 172 797 176 c 0,71,72
 808 180 808 180 808 189 c 0,73,74
 808 199 808 199 796 203 c 0,75,76
 785 207 785 207 777 223 c 128,-1,77
 769 239 769 239 753 293 c 0,78,79
 742 330 742 330 732 348 c 128,-1,80
 722 366 722 366 707 374 c 128,-1,81
 692 382 692 382 665 386 c 0,82,83
 646 389 646 389 628 389 c 0,84,85
 607 389 607 389 592.5 385 c 128,-1,86
 578 381 578 381 575 374 c 2,87,-1
 575 372 l 2,88,89
 575 369 575 369 579 365 c 128,-1,90
 583 361 583 361 590 359 c 0,91,92
 603 354 603 354 611 338 c 128,-1,93
 619 322 619 322 636 266 c 0,94,95
 648 226 648 226 662.5 206 c 128,-1,96
 677 186 677 186 701 179 c 0,97,68
 722 172 722 172 762 172 c 0,69,70
1214 -52 m 0,99,100
 1220 -52 1220 -52 1223 -46.5 c 128,-1,101
 1226 -41 1226 -41 1226 -32 c 0,102,103
 1226 -9 1226 -9 1211 3 c 0,104,105
 1111 88 1111 88 981 107 c 0,106,107
 957 110 957 110 856 110 c 0,108,109
 740 110 740 110 610 107 c 0,110,111
 479 104 479 104 371 104 c 0,112,113
 259 104 259 104 226 108 c 0,114,115
 90 125 90 125 57 145 c 0,116,117
 53 148 53 148 47 148 c 0,118,119
 38 148 38 148 33.5 139.5 c 128,-1,120
 29 131 29 131 31 118 c 0,121,122
 38 80 38 80 88 51 c 128,-1,123
 138 22 138 22 223 7 c 0,124,125
 318 -9 318 -9 426 -9 c 2,126,-1
 463 -9 l 2,127,128
 583 -6 583 -6 850 -6 c 0,129,130
 971 -6 971 -6 987 -7 c 0,131,132
 1089 -14 1089 -14 1145 -28 c 0,133,134
 1163 -32 1163 -32 1182 -38.5 c 128,-1,135
 1201 -45 1201 -45 1206 -49 c 0,136,98
 1211 -52 1211 -52 1214 -52 c 0,99,100
EndSplineSet
Fore
SplineSet
1096 172 m 0,1,2
 1115 172 1115 172 1113 184 c 0,3,4
 1112 194 1112 194 1072.5 216 c 128,-1,5
 1033 238 1033 238 995 249 c 2,6,-1
 952 262 l 1,7,-1
 986 269 l 2,8,9
 1046 282 1046 282 1102 324 c 128,-1,10
 1158 366 1158 366 1176 412 c 0,11,12
 1180 423 1180 423 1185 461 c 128,-1,13
 1190 499 1190 499 1192 541 c 0,14,15
 1196 615 1196 615 1206.5 649 c 128,-1,16
 1217 683 1217 683 1240 696 c 0,17,18
 1252 704 1252 704 1252 725 c 0,19,20
 1252 739 1252 739 1246.5 752.5 c 128,-1,21
 1241 766 1241 766 1231 773 c 0,22,23
 1213 787 1213 787 1192 787 c 0,24,25
 1173 787 1173 787 1148 774 c 0,26,27
 1116 757 1116 757 1097 709.5 c 128,-1,28
 1078 662 1078 662 1071 573 c 0,29,30
 1062 469 1062 469 1037.5 417.5 c 128,-1,31
 1013 366 1013 366 958 334 c 0,32,33
 936 321 936 321 909 310.5 c 128,-1,34
 882 300 882 300 864 297 c 2,35,-1
 820 290 l 1,36,-1
 1005 201 l 2,37,0
 1068 172 1068 172 1096 172 c 0,1,2
562 172 m 0,39,40
 589 172 589 172 597 176 c 0,41,42
 608 180 608 180 608 189 c 0,43,44
 608 199 608 199 596 203 c 0,45,46
 585 207 585 207 577 223 c 128,-1,47
 569 239 569 239 553 293 c 0,48,49
 542 330 542 330 532 348 c 128,-1,50
 522 366 522 366 507 374 c 128,-1,51
 492 382 492 382 465 386 c 0,52,53
 446 389 446 389 428 389 c 0,54,55
 407 389 407 389 392.5 385 c 128,-1,56
 378 381 378 381 375 374 c 2,57,-1
 375 372 l 2,58,59
 375 369 375 369 379 365 c 128,-1,60
 383 361 383 361 390 359 c 0,61,62
 403 354 403 354 411 338 c 128,-1,63
 419 322 419 322 436 266 c 0,64,65
 448 226 448 226 462.5 206 c 128,-1,66
 477 186 477 186 501 179 c 0,67,38
 522 172 522 172 562 172 c 0,39,40
762 172 m 0,69,70
 789 172 789 172 797 176 c 0,71,72
 808 180 808 180 808 189 c 0,73,74
 808 199 808 199 796 203 c 0,75,76
 785 207 785 207 777 223 c 128,-1,77
 769 239 769 239 753 293 c 0,78,79
 742 330 742 330 732 348 c 128,-1,80
 722 366 722 366 707 374 c 128,-1,81
 692 382 692 382 665 386 c 0,82,83
 646 389 646 389 628 389 c 0,84,85
 607 389 607 389 592.5 385 c 128,-1,86
 578 381 578 381 575 374 c 2,87,-1
 575 372 l 2,88,89
 575 369 575 369 579 365 c 128,-1,90
 583 361 583 361 590 359 c 0,91,92
 603 354 603 354 611 338 c 128,-1,93
 619 322 619 322 636 266 c 0,94,95
 648 226 648 226 662.5 206 c 128,-1,96
 677 186 677 186 701 179 c 0,97,68
 722 172 722 172 762 172 c 0,69,70
1214 -52 m 0,99,100
 1220 -52 1220 -52 1223 -46.5 c 128,-1,101
 1226 -41 1226 -41 1226 -32 c 0,102,103
 1226 -9 1226 -9 1211 3 c 0,104,105
 1111 88 1111 88 981 107 c 0,106,107
 957 110 957 110 856 110 c 0,108,109
 740 110 740 110 610 107 c 0,110,111
 479 104 479 104 371 104 c 0,112,113
 259 104 259 104 226 108 c 0,114,115
 90 125 90 125 57 145 c 0,116,117
 53 148 53 148 47 148 c 0,118,119
 38 148 38 148 33.5 139.5 c 128,-1,120
 29 131 29 131 31 118 c 0,121,122
 38 80 38 80 88 51 c 128,-1,123
 138 22 138 22 223 7 c 0,124,125
 318 -9 318 -9 426 -9 c 2,126,-1
 463 -9 l 2,127,128
 583 -6 583 -6 850 -6 c 0,129,130
 971 -6 971 -6 987 -7 c 0,131,132
 1089 -14 1089 -14 1145 -28 c 0,133,134
 1163 -32 1163 -32 1182 -38.5 c 128,-1,135
 1201 -45 1201 -45 1206 -49 c 0,136,98
 1211 -52 1211 -52 1214 -52 c 0,99,100
EndSplineSet
EndChar

StartChar: v
Encoding: 118 118 9
Width: 1126
GlyphClass: 1
Flags: W
LayerCount: 2
Back
SplineSet
469 193 m 128,-1,1
 499 191 499 191 529 191 c 256,2,3
 559 191 559 191 573.5 195.5 c 128,-1,4
 588 200 588 200 599 211 c 0,5,6
 609 221 609 221 612.5 230 c 128,-1,7
 616 239 616 239 616 258 c 256,8,9
 616 277 616 277 613 316 c 1,10,11
 613 310 613 310 609 354 c 2,12,-1
 607 379 l 2,13,14
 607 391 607 391 613.5 395.5 c 128,-1,15
 620 400 620 400 638 400 c 0,16,17
 654 400 654 400 660.5 402.5 c 128,-1,18
 667 405 667 405 667 412 c 0,19,20
 667 422 667 422 661.5 427 c 128,-1,21
 656 432 656 432 639 434 c 128,-1,22
 622 436 622 436 584 438 c 0,23,24
 570 439 570 439 546 439 c 0,25,26
 506 439 506 439 492.5 429 c 128,-1,27
 479 419 479 419 479 386 c 0,28,29
 479 368 479 368 482 341 c 0,30,31
 484 307 484 307 484 298 c 0,32,33
 484 263 484 263 473 251.5 c 128,-1,34
 462 240 462 240 431 240 c 0,35,36
 411 240 411 240 404.5 236.5 c 128,-1,37
 398 233 398 233 400 223 c 0,38,39
 402 216 402 216 410 209 c 128,-1,40
 418 202 418 202 428 199 c 0,41,0
 439 195 439 195 469 193 c 128,-1,1
1083 -52 m 0,43,44
 1089 -52 1089 -52 1092.5 -46 c 128,-1,45
 1096 -40 1096 -40 1096 -31 c 256,46,47
 1096 -22 1096 -22 1092 -12.5 c 128,-1,48
 1088 -3 1088 -3 1080 3 c 0,49,50
 976 88 976 88 850 107 c 0,51,52
 827 111 827 111 774 111 c 0,53,54
 713 111 713 111 609 107 c 0,55,56
 479 104 479 104 370 104 c 0,57,58
 258 104 258 104 225 108 c 0,59,60
 92 125 92 125 56 145 c 0,61,62
 51 148 51 148 47 148 c 0,63,64
 39 148 39 148 34 139.5 c 128,-1,65
 29 131 29 131 30 118 c 0,66,67
 36 81 36 81 86 52.5 c 128,-1,68
 136 24 136 24 222 7 c 0,69,70
 319 -10 319 -10 418 -10 c 0,71,72
 447 -10 447 -10 462 -9 c 0,73,74
 582 -6 582 -6 755 -6 c 0,75,76
 840 -6 840 -6 856 -7 c 0,77,78
 951 -12 951 -12 1014 -28 c 0,79,80
 1032 -32 1032 -32 1051 -38.5 c 128,-1,81
 1070 -45 1070 -45 1075 -49 c 0,82,42
 1080 -52 1080 -52 1083 -52 c 0,43,44
EndSplineSet
Fore
SplineSet
469 193 m 128,-1,1
 499 191 499 191 529 191 c 256,2,3
 559 191 559 191 573.5 195.5 c 128,-1,4
 588 200 588 200 599 211 c 0,5,6
 609 221 609 221 612.5 230 c 128,-1,7
 616 239 616 239 616 258 c 256,8,9
 616 277 616 277 613 316 c 1,10,11
 613 310 613 310 609 354 c 2,12,-1
 607 379 l 2,13,14
 607 391 607 391 613.5 395.5 c 128,-1,15
 620 400 620 400 638 400 c 0,16,17
 654 400 654 400 660.5 402.5 c 128,-1,18
 667 405 667 405 667 412 c 0,19,20
 667 422 667 422 661.5 427 c 128,-1,21
 656 432 656 432 639 434 c 128,-1,22
 622 436 622 436 584 438 c 0,23,24
 570 439 570 439 546 439 c 0,25,26
 506 439 506 439 492.5 429 c 128,-1,27
 479 419 479 419 479 386 c 0,28,29
 479 368 479 368 482 341 c 0,30,31
 484 307 484 307 484 298 c 0,32,33
 484 263 484 263 473 251.5 c 128,-1,34
 462 240 462 240 431 240 c 0,35,36
 411 240 411 240 404.5 236.5 c 128,-1,37
 398 233 398 233 400 223 c 0,38,39
 402 216 402 216 410 209 c 128,-1,40
 418 202 418 202 428 199 c 0,41,0
 439 195 439 195 469 193 c 128,-1,1
1083 -52 m 0,43,44
 1089 -52 1089 -52 1092.5 -46 c 128,-1,45
 1096 -40 1096 -40 1096 -31 c 256,46,47
 1096 -22 1096 -22 1092 -12.5 c 128,-1,48
 1088 -3 1088 -3 1080 3 c 0,49,50
 976 88 976 88 850 107 c 0,51,52
 827 111 827 111 774 111 c 0,53,54
 713 111 713 111 609 107 c 0,55,56
 479 104 479 104 370 104 c 0,57,58
 258 104 258 104 225 108 c 0,59,60
 92 125 92 125 56 145 c 0,61,62
 51 148 51 148 47 148 c 0,63,64
 39 148 39 148 34 139.5 c 128,-1,65
 29 131 29 131 30 118 c 0,66,67
 36 81 36 81 86 52.5 c 128,-1,68
 136 24 136 24 222 7 c 0,69,70
 319 -10 319 -10 418 -10 c 0,71,72
 447 -10 447 -10 462 -9 c 0,73,74
 582 -6 582 -6 755 -6 c 0,75,76
 840 -6 840 -6 856 -7 c 0,77,78
 951 -12 951 -12 1014 -28 c 0,79,80
 1032 -32 1032 -32 1051 -38.5 c 128,-1,81
 1070 -45 1070 -45 1075 -49 c 0,82,42
 1080 -52 1080 -52 1083 -52 c 0,43,44
EndSplineSet
EndChar

StartChar: x
Encoding: 120 120 10
Width: 1127
GlyphClass: 1
Flags: W
LayerCount: 2
Back
SplineSet
1051 181 m 0,1,2
 1061 181 1061 181 1066 187.5 c 128,-1,3
 1071 194 1071 194 1071 205 c 0,4,5
 1071 220 1071 220 1060.5 237.5 c 128,-1,6
 1050 255 1050 255 1031 266 c 0,7,8
 936 321 936 321 697 321 c 0,9,10
 569 321 569 321 397 306 c 2,11,-1
 376 304 l 2,12,13
 273 295 273 295 244 295 c 0,14,15
 224 295 224 295 215.5 298 c 128,-1,16
 207 301 207 301 199 308 c 0,17,18
 181 325 181 325 181 337 c 0,19,20
 181 352 181 352 205 370 c 0,21,22
 213 377 213 377 220 381 c 128,-1,23
 227 385 227 385 232 385 c 0,24,25
 238 385 238 385 247.5 381 c 128,-1,26
 257 377 257 377 270 370 c 0,27,28
 297 356 297 356 310 356 c 0,29,30
 318 356 318 356 325 362 c 0,31,32
 334 370 334 370 334 379 c 0,33,34
 334 391 334 391 316 405 c 128,-1,35
 298 419 298 419 263 432 c 0,36,37
 206 453 206 453 163 453 c 0,38,39
 119 453 119 453 77 434 c 0,40,41
 52 423 52 423 43.5 417 c 128,-1,42
 35 411 35 411 32.5 402 c 128,-1,43
 30 393 30 393 30 369 c 0,44,45
 30 342 30 342 36.5 326.5 c 128,-1,46
 43 311 43 311 62 298.5 c 128,-1,47
 81 286 81 286 122 268 c 0,48,49
 174 245 174 245 209 234 c 128,-1,50
 244 223 244 223 289.5 218.5 c 128,-1,51
 335 214 335 214 412 214 c 0,52,53
 483 214 483 214 597 217 c 0,54,55
 710 220 710 220 782 220 c 0,56,57
 891 220 891 220 943 213 c 128,-1,58
 995 206 995 206 1030 187 c 0,59,0
 1040 181 1040 181 1051 181 c 0,1,2
1084 -52 m 0,61,62
 1090 -52 1090 -52 1093.5 -46 c 128,-1,63
 1097 -40 1097 -40 1097 -31 c 256,64,65
 1097 -22 1097 -22 1093 -12.5 c 128,-1,66
 1089 -3 1089 -3 1081 3 c 0,67,68
 977 88 977 88 851 107 c 0,69,70
 828 111 828 111 775 111 c 0,71,72
 714 111 714 111 610 107 c 0,73,74
 479 104 479 104 371 104 c 0,75,76
 259 104 259 104 226 108 c 0,77,78
 93 125 93 125 57 145 c 0,79,80
 53 148 53 148 48 148 c 0,81,82
 40 148 40 148 35 139.5 c 128,-1,83
 30 131 30 131 31 118 c 0,84,85
 37 81 37 81 87 52.5 c 128,-1,86
 137 24 137 24 223 7 c 0,87,88
 320 -10 320 -10 419 -10 c 0,89,90
 448 -10 448 -10 463 -9 c 0,91,92
 583 -6 583 -6 756 -6 c 0,93,94
 841 -6 841 -6 857 -7 c 0,95,96
 952 -12 952 -12 1015 -28 c 0,97,98
 1033 -32 1033 -32 1052 -38.5 c 128,-1,99
 1071 -45 1071 -45 1076 -49 c 0,100,60
 1081 -52 1081 -52 1084 -52 c 0,61,62
EndSplineSet
Fore
SplineSet
1051 181 m 0,1,2
 1061 181 1061 181 1066 187.5 c 128,-1,3
 1071 194 1071 194 1071 205 c 0,4,5
 1071 220 1071 220 1060.5 237.5 c 128,-1,6
 1050 255 1050 255 1031 266 c 0,7,8
 936 321 936 321 697 321 c 0,9,10
 569 321 569 321 397 306 c 2,11,-1
 376 304 l 2,12,13
 273 295 273 295 244 295 c 0,14,15
 224 295 224 295 215.5 298 c 128,-1,16
 207 301 207 301 199 308 c 0,17,18
 181 325 181 325 181 337 c 0,19,20
 181 352 181 352 205 370 c 0,21,22
 213 377 213 377 220 381 c 128,-1,23
 227 385 227 385 232 385 c 0,24,25
 238 385 238 385 247.5 381 c 128,-1,26
 257 377 257 377 270 370 c 0,27,28
 297 356 297 356 310 356 c 0,29,30
 318 356 318 356 325 362 c 0,31,32
 334 370 334 370 334 379 c 0,33,34
 334 391 334 391 316 405 c 128,-1,35
 298 419 298 419 263 432 c 0,36,37
 206 453 206 453 163 453 c 0,38,39
 119 453 119 453 77 434 c 0,40,41
 52 423 52 423 43.5 417 c 128,-1,42
 35 411 35 411 32.5 402 c 128,-1,43
 30 393 30 393 30 369 c 0,44,45
 30 342 30 342 36.5 326.5 c 128,-1,46
 43 311 43 311 62 298.5 c 128,-1,47
 81 286 81 286 122 268 c 0,48,49
 174 245 174 245 209 234 c 128,-1,50
 244 223 244 223 289.5 218.5 c 128,-1,51
 335 214 335 214 412 214 c 0,52,53
 483 214 483 214 597 217 c 0,54,55
 710 220 710 220 782 220 c 0,56,57
 891 220 891 220 943 213 c 128,-1,58
 995 206 995 206 1030 187 c 0,59,0
 1040 181 1040 181 1051 181 c 0,1,2
1084 -52 m 0,61,62
 1090 -52 1090 -52 1093.5 -46 c 128,-1,63
 1097 -40 1097 -40 1097 -31 c 256,64,65
 1097 -22 1097 -22 1093 -12.5 c 128,-1,66
 1089 -3 1089 -3 1081 3 c 0,67,68
 977 88 977 88 851 107 c 0,69,70
 828 111 828 111 775 111 c 0,71,72
 714 111 714 111 610 107 c 0,73,74
 479 104 479 104 371 104 c 0,75,76
 259 104 259 104 226 108 c 0,77,78
 93 125 93 125 57 145 c 0,79,80
 53 148 53 148 48 148 c 0,81,82
 40 148 40 148 35 139.5 c 128,-1,83
 30 131 30 131 31 118 c 0,84,85
 37 81 37 81 87 52.5 c 128,-1,86
 137 24 137 24 223 7 c 0,87,88
 320 -10 320 -10 419 -10 c 0,89,90
 448 -10 448 -10 463 -9 c 0,91,92
 583 -6 583 -6 756 -6 c 0,93,94
 841 -6 841 -6 857 -7 c 0,95,96
 952 -12 952 -12 1015 -28 c 0,97,98
 1033 -32 1033 -32 1052 -38.5 c 128,-1,99
 1071 -45 1071 -45 1076 -49 c 0,100,60
 1081 -52 1081 -52 1084 -52 c 0,61,62
EndSplineSet
EndChar

StartChar: zero
Encoding: 48 48 11
Width: 1282
GlyphClass: 1
Flags: W
LayerCount: 2
Back
SplineSet
706 442 m 0,1,2
 725 442 725 442 723 454 c 0,3,4
 722 464 722 464 682.5 486 c 128,-1,5
 643 508 643 508 605 519 c 2,6,-1
 562 532 l 1,7,-1
 596 539 l 2,8,9
 656 552 656 552 712 594 c 128,-1,10
 768 636 768 636 786 682 c 0,11,12
 790 693 790 693 795 731 c 128,-1,13
 800 769 800 769 802 811 c 0,14,15
 806 885 806 885 816.5 919 c 128,-1,16
 827 953 827 953 850 966 c 0,17,18
 862 974 862 974 862 995 c 0,19,20
 862 1009 862 1009 856.5 1022.5 c 128,-1,21
 851 1036 851 1036 841 1043 c 0,22,23
 823 1057 823 1057 802 1057 c 0,24,25
 783 1057 783 1057 758 1044 c 0,26,27
 726 1027 726 1027 707 979.5 c 128,-1,28
 688 932 688 932 681 843 c 0,29,30
 672 739 672 739 647.5 687.5 c 128,-1,31
 623 636 623 636 568 604 c 0,32,33
 546 591 546 591 519 580.5 c 128,-1,34
 492 570 492 570 474 567 c 2,35,-1
 430 560 l 1,36,-1
 615 471 l 2,37,0
 678 442 678 442 706 442 c 0,1,2
1096 172 m 0,39,40
 1115 172 1115 172 1113 184 c 0,41,42
 1112 194 1112 194 1072.5 216 c 128,-1,43
 1033 238 1033 238 995 249 c 2,44,-1
 952 262 l 1,45,-1
 986 269 l 2,46,47
 1046 282 1046 282 1102 324 c 128,-1,48
 1158 366 1158 366 1176 412 c 0,49,50
 1180 423 1180 423 1185 461 c 128,-1,51
 1190 499 1190 499 1192 541 c 0,52,53
 1196 615 1196 615 1206.5 649 c 128,-1,54
 1217 683 1217 683 1240 696 c 0,55,56
 1252 704 1252 704 1252 725 c 0,57,58
 1252 739 1252 739 1246.5 752.5 c 128,-1,59
 1241 766 1241 766 1231 773 c 0,60,61
 1213 787 1213 787 1192 787 c 0,62,63
 1173 787 1173 787 1148 774 c 0,64,65
 1116 757 1116 757 1097 709.5 c 128,-1,66
 1078 662 1078 662 1071 573 c 0,67,68
 1062 469 1062 469 1037.5 417.5 c 128,-1,69
 1013 366 1013 366 958 334 c 0,70,71
 936 321 936 321 909 310.5 c 128,-1,72
 882 300 882 300 864 297 c 2,73,-1
 820 290 l 1,74,-1
 1005 201 l 2,75,38
 1068 172 1068 172 1096 172 c 0,39,40
562 172 m 0,77,78
 589 172 589 172 597 176 c 0,79,80
 608 180 608 180 608 189 c 0,81,82
 608 199 608 199 596 203 c 0,83,84
 585 207 585 207 577 223 c 128,-1,85
 569 239 569 239 553 293 c 0,86,87
 542 330 542 330 532 348 c 128,-1,88
 522 366 522 366 507 374 c 128,-1,89
 492 382 492 382 465 386 c 0,90,91
 446 389 446 389 428 389 c 0,92,93
 407 389 407 389 392.5 385 c 128,-1,94
 378 381 378 381 375 374 c 2,95,-1
 375 372 l 2,96,97
 375 369 375 369 379 365 c 128,-1,98
 383 361 383 361 390 359 c 0,99,100
 403 354 403 354 411 338 c 128,-1,101
 419 322 419 322 436 266 c 0,102,103
 448 226 448 226 462.5 206 c 128,-1,104
 477 186 477 186 501 179 c 0,105,76
 522 172 522 172 562 172 c 0,77,78
762 172 m 0,107,108
 789 172 789 172 797 176 c 0,109,110
 808 180 808 180 808 189 c 0,111,112
 808 199 808 199 796 203 c 0,113,114
 785 207 785 207 777 223 c 128,-1,115
 769 239 769 239 753 293 c 0,116,117
 742 330 742 330 732 348 c 128,-1,118
 722 366 722 366 707 374 c 128,-1,119
 692 382 692 382 665 386 c 0,120,121
 646 389 646 389 628 389 c 0,122,123
 607 389 607 389 592.5 385 c 128,-1,124
 578 381 578 381 575 374 c 2,125,-1
 575 372 l 2,126,127
 575 369 575 369 579 365 c 128,-1,128
 583 361 583 361 590 359 c 0,129,130
 603 354 603 354 611 338 c 128,-1,131
 619 322 619 322 636 266 c 0,132,133
 648 226 648 226 662.5 206 c 128,-1,134
 677 186 677 186 701 179 c 0,135,106
 722 172 722 172 762 172 c 0,107,108
1214 -52 m 0,137,138
 1220 -52 1220 -52 1223 -46.5 c 128,-1,139
 1226 -41 1226 -41 1226 -32 c 0,140,141
 1226 -9 1226 -9 1211 3 c 0,142,143
 1111 88 1111 88 981 107 c 0,144,145
 957 110 957 110 856 110 c 0,146,147
 740 110 740 110 610 107 c 0,148,149
 479 104 479 104 371 104 c 0,150,151
 259 104 259 104 226 108 c 0,152,153
 90 125 90 125 57 145 c 0,154,155
 53 148 53 148 47 148 c 0,156,157
 38 148 38 148 33.5 139.5 c 128,-1,158
 29 131 29 131 31 118 c 0,159,160
 38 80 38 80 88 51 c 128,-1,161
 138 22 138 22 223 7 c 0,162,163
 318 -9 318 -9 426 -9 c 2,164,-1
 463 -9 l 2,165,166
 583 -6 583 -6 850 -6 c 0,167,168
 971 -6 971 -6 987 -7 c 0,169,170
 1089 -14 1089 -14 1145 -28 c 0,171,172
 1163 -32 1163 -32 1182 -38.5 c 128,-1,173
 1201 -45 1201 -45 1206 -49 c 0,174,136
 1211 -52 1211 -52 1214 -52 c 0,137,138
EndSplineSet
Fore
SplineSet
706 442 m 0,1,2
 725 442 725 442 723 454 c 0,3,4
 722 464 722 464 682.5 486 c 128,-1,5
 643 508 643 508 605 519 c 2,6,-1
 562 532 l 1,7,-1
 596 539 l 2,8,9
 656 552 656 552 712 594 c 128,-1,10
 768 636 768 636 786 682 c 0,11,12
 790 693 790 693 795 731 c 128,-1,13
 800 769 800 769 802 811 c 0,14,15
 806 885 806 885 816.5 919 c 128,-1,16
 827 953 827 953 850 966 c 0,17,18
 862 974 862 974 862 995 c 0,19,20
 862 1009 862 1009 856.5 1022.5 c 128,-1,21
 851 1036 851 1036 841 1043 c 0,22,23
 823 1057 823 1057 802 1057 c 0,24,25
 783 1057 783 1057 758 1044 c 0,26,27
 726 1027 726 1027 707 979.5 c 128,-1,28
 688 932 688 932 681 843 c 0,29,30
 672 739 672 739 647.5 687.5 c 128,-1,31
 623 636 623 636 568 604 c 0,32,33
 546 591 546 591 519 580.5 c 128,-1,34
 492 570 492 570 474 567 c 2,35,-1
 430 560 l 1,36,-1
 615 471 l 2,37,0
 678 442 678 442 706 442 c 0,1,2
1096 172 m 0,39,40
 1115 172 1115 172 1113 184 c 0,41,42
 1112 194 1112 194 1072.5 216 c 128,-1,43
 1033 238 1033 238 995 249 c 2,44,-1
 952 262 l 1,45,-1
 986 269 l 2,46,47
 1046 282 1046 282 1102 324 c 128,-1,48
 1158 366 1158 366 1176 412 c 0,49,50
 1180 423 1180 423 1185 461 c 128,-1,51
 1190 499 1190 499 1192 541 c 0,52,53
 1196 615 1196 615 1206.5 649 c 128,-1,54
 1217 683 1217 683 1240 696 c 0,55,56
 1252 704 1252 704 1252 725 c 0,57,58
 1252 739 1252 739 1246.5 752.5 c 128,-1,59
 1241 766 1241 766 1231 773 c 0,60,61
 1213 787 1213 787 1192 787 c 0,62,63
 1173 787 1173 787 1148 774 c 0,64,65
 1116 757 1116 757 1097 709.5 c 128,-1,66
 1078 662 1078 662 1071 573 c 0,67,68
 1062 469 1062 469 1037.5 417.5 c 128,-1,69
 1013 366 1013 366 958 334 c 0,70,71
 936 321 936 321 909 310.5 c 128,-1,72
 882 300 882 300 864 297 c 2,73,-1
 820 290 l 1,74,-1
 1005 201 l 2,75,38
 1068 172 1068 172 1096 172 c 0,39,40
562 172 m 0,77,78
 589 172 589 172 597 176 c 0,79,80
 608 180 608 180 608 189 c 0,81,82
 608 199 608 199 596 203 c 0,83,84
 585 207 585 207 577 223 c 128,-1,85
 569 239 569 239 553 293 c 0,86,87
 542 330 542 330 532 348 c 128,-1,88
 522 366 522 366 507 374 c 128,-1,89
 492 382 492 382 465 386 c 0,90,91
 446 389 446 389 428 389 c 0,92,93
 407 389 407 389 392.5 385 c 128,-1,94
 378 381 378 381 375 374 c 2,95,-1
 375 372 l 2,96,97
 375 369 375 369 379 365 c 128,-1,98
 383 361 383 361 390 359 c 0,99,100
 403 354 403 354 411 338 c 128,-1,101
 419 322 419 322 436 266 c 0,102,103
 448 226 448 226 462.5 206 c 128,-1,104
 477 186 477 186 501 179 c 0,105,76
 522 172 522 172 562 172 c 0,77,78
762 172 m 0,107,108
 789 172 789 172 797 176 c 0,109,110
 808 180 808 180 808 189 c 0,111,112
 808 199 808 199 796 203 c 0,113,114
 785 207 785 207 777 223 c 128,-1,115
 769 239 769 239 753 293 c 0,116,117
 742 330 742 330 732 348 c 128,-1,118
 722 366 722 366 707 374 c 128,-1,119
 692 382 692 382 665 386 c 0,120,121
 646 389 646 389 628 389 c 0,122,123
 607 389 607 389 592.5 385 c 128,-1,124
 578 381 578 381 575 374 c 2,125,-1
 575 372 l 2,126,127
 575 369 575 369 579 365 c 128,-1,128
 583 361 583 361 590 359 c 0,129,130
 603 354 603 354 611 338 c 128,-1,131
 619 322 619 322 636 266 c 0,132,133
 648 226 648 226 662.5 206 c 128,-1,134
 677 186 677 186 701 179 c 0,135,106
 722 172 722 172 762 172 c 0,107,108
1214 -52 m 0,137,138
 1220 -52 1220 -52 1223 -46.5 c 128,-1,139
 1226 -41 1226 -41 1226 -32 c 0,140,141
 1226 -9 1226 -9 1211 3 c 0,142,143
 1111 88 1111 88 981 107 c 0,144,145
 957 110 957 110 856 110 c 0,146,147
 740 110 740 110 610 107 c 0,148,149
 479 104 479 104 371 104 c 0,150,151
 259 104 259 104 226 108 c 0,152,153
 90 125 90 125 57 145 c 0,154,155
 53 148 53 148 47 148 c 0,156,157
 38 148 38 148 33.5 139.5 c 128,-1,158
 29 131 29 131 31 118 c 0,159,160
 38 80 38 80 88 51 c 128,-1,161
 138 22 138 22 223 7 c 0,162,163
 318 -9 318 -9 426 -9 c 2,164,-1
 463 -9 l 2,165,166
 583 -6 583 -6 850 -6 c 0,167,168
 971 -6 971 -6 987 -7 c 0,169,170
 1089 -14 1089 -14 1145 -28 c 0,171,172
 1163 -32 1163 -32 1182 -38.5 c 128,-1,173
 1201 -45 1201 -45 1206 -49 c 0,174,136
 1211 -52 1211 -52 1214 -52 c 0,137,138
EndSplineSet
EndChar

StartChar: one
Encoding: 49 49 12
Width: 1256
GlyphClass: 1
Flags: W
LayerCount: 2
Back
SplineSet
718 413 m 0,1,2
 737 413 737 413 735 425 c 0,3,4
 734 435 734 435 694.5 457 c 128,-1,5
 655 479 655 479 617 490 c 2,6,-1
 574 503 l 1,7,-1
 608 510 l 2,8,9
 668 523 668 523 724 565 c 128,-1,10
 780 607 780 607 798 653 c 0,11,12
 802 664 802 664 807 702 c 128,-1,13
 812 740 812 740 814 782 c 0,14,15
 818 856 818 856 828.5 890 c 128,-1,16
 839 924 839 924 862 937 c 0,17,18
 874 945 874 945 874 966 c 0,19,20
 874 980 874 980 868.5 993.5 c 128,-1,21
 863 1007 863 1007 853 1014 c 0,22,23
 835 1028 835 1028 814 1028 c 0,24,25
 795 1028 795 1028 770 1015 c 0,26,27
 738 998 738 998 719 950.5 c 128,-1,28
 700 903 700 903 693 814 c 0,29,30
 684 710 684 710 659.5 658.5 c 128,-1,31
 635 607 635 607 580 575 c 0,32,33
 558 562 558 562 531 551.5 c 128,-1,34
 504 541 504 541 486 538 c 2,35,-1
 442 531 l 1,36,-1
 627 442 l 2,37,0
 690 413 690 413 718 413 c 0,1,2
306 172 m 0,39,40
 325 172 325 172 323 184 c 0,41,42
 322 194 322 194 282.5 216 c 128,-1,43
 243 238 243 238 205 249 c 2,44,-1
 162 262 l 1,45,-1
 196 269 l 2,46,47
 256 282 256 282 312 324 c 128,-1,48
 368 366 368 366 386 412 c 0,49,50
 390 423 390 423 395 461 c 128,-1,51
 400 499 400 499 402 541 c 0,52,53
 406 615 406 615 416.5 649 c 128,-1,54
 427 683 427 683 450 696 c 0,55,56
 462 704 462 704 462 725 c 0,57,58
 462 739 462 739 456.5 752.5 c 128,-1,59
 451 766 451 766 441 773 c 0,60,61
 423 787 423 787 402 787 c 0,62,63
 383 787 383 787 358 774 c 0,64,65
 326 757 326 757 307 709.5 c 128,-1,66
 288 662 288 662 281 573 c 0,67,68
 272 469 272 469 247.5 417.5 c 128,-1,69
 223 366 223 366 168 334 c 0,70,71
 146 321 146 321 119 310.5 c 128,-1,72
 92 300 92 300 74 297 c 2,73,-1
 30 290 l 1,74,-1
 215 201 l 2,75,38
 278 172 278 172 306 172 c 0,39,40
649 186 m 0,77,78
 676 186 676 186 684 190 c 0,79,80
 695 194 695 194 695 203 c 0,81,82
 695 213 695 213 683 217 c 0,83,84
 672 221 672 221 664 237 c 128,-1,85
 656 253 656 253 640 307 c 0,86,87
 629 344 629 344 619 362 c 128,-1,88
 609 380 609 380 594 388 c 128,-1,89
 579 396 579 396 552 400 c 0,90,91
 532 403 532 403 515 403 c 0,92,93
 494 403 494 403 479.5 399 c 128,-1,94
 465 395 465 395 462 388 c 2,95,-1
 462 386 l 2,96,97
 462 383 462 383 466 379 c 128,-1,98
 470 375 470 375 477 373 c 0,99,100
 490 368 490 368 498 352 c 128,-1,101
 506 336 506 336 523 280 c 0,102,103
 535 240 535 240 549.5 220 c 128,-1,104
 564 200 564 200 588 193 c 0,105,76
 609 186 609 186 649 186 c 0,77,78
1214 -52 m 0,107,108
 1220 -52 1220 -52 1223 -46.5 c 128,-1,109
 1226 -41 1226 -41 1226 -32 c 0,110,111
 1226 -9 1226 -9 1211 3 c 0,112,113
 1111 88 1111 88 981 107 c 0,114,115
 957 110 957 110 856 110 c 0,116,117
 740 110 740 110 610 107 c 0,118,119
 479 104 479 104 371 104 c 0,120,121
 259 104 259 104 226 108 c 0,122,123
 90 125 90 125 57 145 c 0,124,125
 53 148 53 148 47 148 c 0,126,127
 38 148 38 148 33.5 139.5 c 128,-1,128
 29 131 29 131 31 118 c 0,129,130
 38 80 38 80 88 51 c 128,-1,131
 138 22 138 22 223 7 c 0,132,133
 318 -9 318 -9 426 -9 c 2,134,-1
 463 -9 l 2,135,136
 583 -6 583 -6 850 -6 c 0,137,138
 971 -6 971 -6 987 -7 c 0,139,140
 1089 -14 1089 -14 1145 -28 c 0,141,142
 1163 -32 1163 -32 1182 -38.5 c 128,-1,143
 1201 -45 1201 -45 1206 -49 c 0,144,106
 1211 -52 1211 -52 1214 -52 c 0,107,108
EndSplineSet
Fore
SplineSet
718 413 m 0,1,2
 737 413 737 413 735 425 c 0,3,4
 734 435 734 435 694.5 457 c 128,-1,5
 655 479 655 479 617 490 c 2,6,-1
 574 503 l 1,7,-1
 608 510 l 2,8,9
 668 523 668 523 724 565 c 128,-1,10
 780 607 780 607 798 653 c 0,11,12
 802 664 802 664 807 702 c 128,-1,13
 812 740 812 740 814 782 c 0,14,15
 818 856 818 856 828.5 890 c 128,-1,16
 839 924 839 924 862 937 c 0,17,18
 874 945 874 945 874 966 c 0,19,20
 874 980 874 980 868.5 993.5 c 128,-1,21
 863 1007 863 1007 853 1014 c 0,22,23
 835 1028 835 1028 814 1028 c 0,24,25
 795 1028 795 1028 770 1015 c 0,26,27
 738 998 738 998 719 950.5 c 128,-1,28
 700 903 700 903 693 814 c 0,29,30
 684 710 684 710 659.5 658.5 c 128,-1,31
 635 607 635 607 580 575 c 0,32,33
 558 562 558 562 531 551.5 c 128,-1,34
 504 541 504 541 486 538 c 2,35,-1
 442 531 l 1,36,-1
 627 442 l 2,37,0
 690 413 690 413 718 413 c 0,1,2
306 172 m 0,39,40
 325 172 325 172 323 184 c 0,41,42
 322 194 322 194 282.5 216 c 128,-1,43
 243 238 243 238 205 249 c 2,44,-1
 162 262 l 1,45,-1
 196 269 l 2,46,47
 256 282 256 282 312 324 c 128,-1,48
 368 366 368 366 386 412 c 0,49,50
 390 423 390 423 395 461 c 128,-1,51
 400 499 400 499 402 541 c 0,52,53
 406 615 406 615 416.5 649 c 128,-1,54
 427 683 427 683 450 696 c 0,55,56
 462 704 462 704 462 725 c 0,57,58
 462 739 462 739 456.5 752.5 c 128,-1,59
 451 766 451 766 441 773 c 0,60,61
 423 787 423 787 402 787 c 0,62,63
 383 787 383 787 358 774 c 0,64,65
 326 757 326 757 307 709.5 c 128,-1,66
 288 662 288 662 281 573 c 0,67,68
 272 469 272 469 247.5 417.5 c 128,-1,69
 223 366 223 366 168 334 c 0,70,71
 146 321 146 321 119 310.5 c 128,-1,72
 92 300 92 300 74 297 c 2,73,-1
 30 290 l 1,74,-1
 215 201 l 2,75,38
 278 172 278 172 306 172 c 0,39,40
649 186 m 0,77,78
 676 186 676 186 684 190 c 0,79,80
 695 194 695 194 695 203 c 0,81,82
 695 213 695 213 683 217 c 0,83,84
 672 221 672 221 664 237 c 128,-1,85
 656 253 656 253 640 307 c 0,86,87
 629 344 629 344 619 362 c 128,-1,88
 609 380 609 380 594 388 c 128,-1,89
 579 396 579 396 552 400 c 0,90,91
 532 403 532 403 515 403 c 0,92,93
 494 403 494 403 479.5 399 c 128,-1,94
 465 395 465 395 462 388 c 2,95,-1
 462 386 l 2,96,97
 462 383 462 383 466 379 c 128,-1,98
 470 375 470 375 477 373 c 0,99,100
 490 368 490 368 498 352 c 128,-1,101
 506 336 506 336 523 280 c 0,102,103
 535 240 535 240 549.5 220 c 128,-1,104
 564 200 564 200 588 193 c 0,105,76
 609 186 609 186 649 186 c 0,77,78
1214 -52 m 0,107,108
 1220 -52 1220 -52 1223 -46.5 c 128,-1,109
 1226 -41 1226 -41 1226 -32 c 0,110,111
 1226 -9 1226 -9 1211 3 c 0,112,113
 1111 88 1111 88 981 107 c 0,114,115
 957 110 957 110 856 110 c 0,116,117
 740 110 740 110 610 107 c 0,118,119
 479 104 479 104 371 104 c 0,120,121
 259 104 259 104 226 108 c 0,122,123
 90 125 90 125 57 145 c 0,124,125
 53 148 53 148 47 148 c 0,126,127
 38 148 38 148 33.5 139.5 c 128,-1,128
 29 131 29 131 31 118 c 0,129,130
 38 80 38 80 88 51 c 128,-1,131
 138 22 138 22 223 7 c 0,132,133
 318 -9 318 -9 426 -9 c 2,134,-1
 463 -9 l 2,135,136
 583 -6 583 -6 850 -6 c 0,137,138
 971 -6 971 -6 987 -7 c 0,139,140
 1089 -14 1089 -14 1145 -28 c 0,141,142
 1163 -32 1163 -32 1182 -38.5 c 128,-1,143
 1201 -45 1201 -45 1206 -49 c 0,144,106
 1211 -52 1211 -52 1214 -52 c 0,107,108
EndSplineSet
EndChar

StartChar: two
Encoding: 50 50 13
Width: 1362
GlyphClass: 1
Flags: W
LayerCount: 2
Back
SplineSet
306 172 m 0,1,2
 325 172 325 172 323 184 c 0,3,4
 322 194 322 194 282.5 216 c 128,-1,5
 243 238 243 238 205 249 c 2,6,-1
 162 262 l 1,7,-1
 196 269 l 2,8,9
 256 282 256 282 312 324 c 128,-1,10
 368 366 368 366 386 412 c 0,11,12
 390 423 390 423 395 461 c 128,-1,13
 400 499 400 499 402 541 c 0,14,15
 406 615 406 615 416.5 649 c 128,-1,16
 427 683 427 683 450 696 c 0,17,18
 462 704 462 704 462 725 c 0,19,20
 462 739 462 739 456.5 752.5 c 128,-1,21
 451 766 451 766 441 773 c 0,22,23
 423 787 423 787 402 787 c 0,24,25
 383 787 383 787 358 774 c 0,26,27
 326 757 326 757 307 709.5 c 128,-1,28
 288 662 288 662 281 573 c 0,29,30
 272 469 272 469 247.5 417.5 c 128,-1,31
 223 366 223 366 168 334 c 0,32,33
 146 321 146 321 119 310.5 c 128,-1,34
 92 300 92 300 74 297 c 2,35,-1
 30 290 l 1,36,-1
 215 201 l 2,37,0
 278 172 278 172 306 172 c 0,1,2
741 172 m 0,39,40
 760 172 760 172 758 184 c 0,41,42
 757 194 757 194 717.5 216 c 128,-1,43
 678 238 678 238 640 249 c 2,44,-1
 597 262 l 1,45,-1
 631 269 l 2,46,47
 691 282 691 282 747 324 c 128,-1,48
 803 366 803 366 821 412 c 0,49,50
 825 423 825 423 830 461 c 128,-1,51
 835 499 835 499 837 541 c 0,52,53
 841 615 841 615 851.5 649 c 128,-1,54
 862 683 862 683 885 696 c 0,55,56
 897 704 897 704 897 725 c 0,57,58
 897 739 897 739 891.5 752.5 c 128,-1,59
 886 766 886 766 876 773 c 0,60,61
 858 787 858 787 837 787 c 0,62,63
 818 787 818 787 793 774 c 0,64,65
 761 757 761 757 742 709.5 c 128,-1,66
 723 662 723 662 716 573 c 0,67,68
 707 469 707 469 682.5 417.5 c 128,-1,69
 658 366 658 366 603 334 c 0,70,71
 581 321 581 321 554 310.5 c 128,-1,72
 527 300 527 300 509 297 c 2,73,-1
 465 290 l 1,74,-1
 650 201 l 2,75,38
 713 172 713 172 741 172 c 0,39,40
1176 172 m 0,77,78
 1195 172 1195 172 1193 184 c 0,79,80
 1192 194 1192 194 1152.5 216 c 128,-1,81
 1113 238 1113 238 1075 249 c 2,82,-1
 1032 262 l 1,83,-1
 1066 269 l 2,84,85
 1126 282 1126 282 1182 324 c 128,-1,86
 1238 366 1238 366 1256 412 c 0,87,88
 1260 423 1260 423 1265 461 c 128,-1,89
 1270 499 1270 499 1272 541 c 0,90,91
 1276 615 1276 615 1286.5 649 c 128,-1,92
 1297 683 1297 683 1320 696 c 0,93,94
 1332 704 1332 704 1332 725 c 0,95,96
 1332 739 1332 739 1326.5 752.5 c 128,-1,97
 1321 766 1321 766 1311 773 c 0,98,99
 1293 787 1293 787 1272 787 c 0,100,101
 1253 787 1253 787 1228 774 c 0,102,103
 1196 757 1196 757 1177 709.5 c 128,-1,104
 1158 662 1158 662 1151 573 c 0,105,106
 1142 469 1142 469 1117.5 417.5 c 128,-1,107
 1093 366 1093 366 1038 334 c 0,108,109
 1016 321 1016 321 989 310.5 c 128,-1,110
 962 300 962 300 944 297 c 2,111,-1
 900 290 l 1,112,-1
 1085 201 l 2,113,76
 1148 172 1148 172 1176 172 c 0,77,78
1214 -52 m 0,115,116
 1220 -52 1220 -52 1223 -46.5 c 128,-1,117
 1226 -41 1226 -41 1226 -32 c 0,118,119
 1226 -9 1226 -9 1211 3 c 0,120,121
 1111 88 1111 88 981 107 c 0,122,123
 957 110 957 110 856 110 c 0,124,125
 740 110 740 110 610 107 c 0,126,127
 479 104 479 104 371 104 c 0,128,129
 259 104 259 104 226 108 c 0,130,131
 90 125 90 125 57 145 c 0,132,133
 53 148 53 148 47 148 c 0,134,135
 38 148 38 148 33.5 139.5 c 128,-1,136
 29 131 29 131 31 118 c 0,137,138
 38 80 38 80 88 51 c 128,-1,139
 138 22 138 22 223 7 c 0,140,141
 318 -9 318 -9 426 -9 c 2,142,-1
 463 -9 l 2,143,144
 583 -6 583 -6 850 -6 c 0,145,146
 971 -6 971 -6 987 -7 c 0,147,148
 1089 -14 1089 -14 1145 -28 c 0,149,150
 1163 -32 1163 -32 1182 -38.5 c 128,-1,151
 1201 -45 1201 -45 1206 -49 c 0,152,114
 1211 -52 1211 -52 1214 -52 c 0,115,116
EndSplineSet
Fore
SplineSet
306 172 m 0,1,2
 325 172 325 172 323 184 c 0,3,4
 322 194 322 194 282.5 216 c 128,-1,5
 243 238 243 238 205 249 c 2,6,-1
 162 262 l 1,7,-1
 196 269 l 2,8,9
 256 282 256 282 312 324 c 128,-1,10
 368 366 368 366 386 412 c 0,11,12
 390 423 390 423 395 461 c 128,-1,13
 400 499 400 499 402 541 c 0,14,15
 406 615 406 615 416.5 649 c 128,-1,16
 427 683 427 683 450 696 c 0,17,18
 462 704 462 704 462 725 c 0,19,20
 462 739 462 739 456.5 752.5 c 128,-1,21
 451 766 451 766 441 773 c 0,22,23
 423 787 423 787 402 787 c 0,24,25
 383 787 383 787 358 774 c 0,26,27
 326 757 326 757 307 709.5 c 128,-1,28
 288 662 288 662 281 573 c 0,29,30
 272 469 272 469 247.5 417.5 c 128,-1,31
 223 366 223 366 168 334 c 0,32,33
 146 321 146 321 119 310.5 c 128,-1,34
 92 300 92 300 74 297 c 2,35,-1
 30 290 l 1,36,-1
 215 201 l 2,37,0
 278 172 278 172 306 172 c 0,1,2
741 172 m 0,39,40
 760 172 760 172 758 184 c 0,41,42
 757 194 757 194 717.5 216 c 128,-1,43
 678 238 678 238 640 249 c 2,44,-1
 597 262 l 1,45,-1
 631 269 l 2,46,47
 691 282 691 282 747 324 c 128,-1,48
 803 366 803 366 821 412 c 0,49,50
 825 423 825 423 830 461 c 128,-1,51
 835 499 835 499 837 541 c 0,52,53
 841 615 841 615 851.5 649 c 128,-1,54
 862 683 862 683 885 696 c 0,55,56
 897 704 897 704 897 725 c 0,57,58
 897 739 897 739 891.5 752.5 c 128,-1,59
 886 766 886 766 876 773 c 0,60,61
 858 787 858 787 837 787 c 0,62,63
 818 787 818 787 793 774 c 0,64,65
 761 757 761 757 742 709.5 c 128,-1,66
 723 662 723 662 716 573 c 0,67,68
 707 469 707 469 682.5 417.5 c 128,-1,69
 658 366 658 366 603 334 c 0,70,71
 581 321 581 321 554 310.5 c 128,-1,72
 527 300 527 300 509 297 c 2,73,-1
 465 290 l 1,74,-1
 650 201 l 2,75,38
 713 172 713 172 741 172 c 0,39,40
1176 172 m 0,77,78
 1195 172 1195 172 1193 184 c 0,79,80
 1192 194 1192 194 1152.5 216 c 128,-1,81
 1113 238 1113 238 1075 249 c 2,82,-1
 1032 262 l 1,83,-1
 1066 269 l 2,84,85
 1126 282 1126 282 1182 324 c 128,-1,86
 1238 366 1238 366 1256 412 c 0,87,88
 1260 423 1260 423 1265 461 c 128,-1,89
 1270 499 1270 499 1272 541 c 0,90,91
 1276 615 1276 615 1286.5 649 c 128,-1,92
 1297 683 1297 683 1320 696 c 0,93,94
 1332 704 1332 704 1332 725 c 0,95,96
 1332 739 1332 739 1326.5 752.5 c 128,-1,97
 1321 766 1321 766 1311 773 c 0,98,99
 1293 787 1293 787 1272 787 c 0,100,101
 1253 787 1253 787 1228 774 c 0,102,103
 1196 757 1196 757 1177 709.5 c 128,-1,104
 1158 662 1158 662 1151 573 c 0,105,106
 1142 469 1142 469 1117.5 417.5 c 128,-1,107
 1093 366 1093 366 1038 334 c 0,108,109
 1016 321 1016 321 989 310.5 c 128,-1,110
 962 300 962 300 944 297 c 2,111,-1
 900 290 l 1,112,-1
 1085 201 l 2,113,76
 1148 172 1148 172 1176 172 c 0,77,78
1214 -52 m 0,115,116
 1220 -52 1220 -52 1223 -46.5 c 128,-1,117
 1226 -41 1226 -41 1226 -32 c 0,118,119
 1226 -9 1226 -9 1211 3 c 0,120,121
 1111 88 1111 88 981 107 c 0,122,123
 957 110 957 110 856 110 c 0,124,125
 740 110 740 110 610 107 c 0,126,127
 479 104 479 104 371 104 c 0,128,129
 259 104 259 104 226 108 c 0,130,131
 90 125 90 125 57 145 c 0,132,133
 53 148 53 148 47 148 c 0,134,135
 38 148 38 148 33.5 139.5 c 128,-1,136
 29 131 29 131 31 118 c 0,137,138
 38 80 38 80 88 51 c 128,-1,139
 138 22 138 22 223 7 c 0,140,141
 318 -9 318 -9 426 -9 c 2,142,-1
 463 -9 l 2,143,144
 583 -6 583 -6 850 -6 c 0,145,146
 971 -6 971 -6 987 -7 c 0,147,148
 1089 -14 1089 -14 1145 -28 c 0,149,150
 1163 -32 1163 -32 1182 -38.5 c 128,-1,151
 1201 -45 1201 -45 1206 -49 c 0,152,114
 1211 -52 1211 -52 1214 -52 c 0,115,116
EndSplineSet
EndChar

StartChar: three
Encoding: 51 51 14
Width: 1282
GlyphClass: 1
Flags: W
LayerCount: 2
Back
SplineSet
706 442 m 0,1,2
 725 442 725 442 723 454 c 0,3,4
 722 464 722 464 682.5 486 c 128,-1,5
 643 508 643 508 605 519 c 2,6,-1
 562 532 l 1,7,-1
 596 539 l 2,8,9
 656 552 656 552 712 594 c 128,-1,10
 768 636 768 636 786 682 c 0,11,12
 790 693 790 693 795 731 c 128,-1,13
 800 769 800 769 802 811 c 0,14,15
 806 885 806 885 816.5 919 c 128,-1,16
 827 953 827 953 850 966 c 0,17,18
 862 974 862 974 862 995 c 0,19,20
 862 1009 862 1009 856.5 1022.5 c 128,-1,21
 851 1036 851 1036 841 1043 c 0,22,23
 823 1057 823 1057 802 1057 c 0,24,25
 783 1057 783 1057 758 1044 c 0,26,27
 726 1027 726 1027 707 979.5 c 128,-1,28
 688 932 688 932 681 843 c 0,29,30
 672 739 672 739 647.5 687.5 c 128,-1,31
 623 636 623 636 568 604 c 0,32,33
 546 591 546 591 519 580.5 c 128,-1,34
 492 570 492 570 474 567 c 2,35,-1
 430 560 l 1,36,-1
 615 471 l 2,37,0
 678 442 678 442 706 442 c 0,1,2
306 172 m 0,39,40
 325 172 325 172 323 184 c 0,41,42
 322 194 322 194 282.5 216 c 128,-1,43
 243 238 243 238 205 249 c 2,44,-1
 162 262 l 1,45,-1
 196 269 l 2,46,47
 256 282 256 282 312 324 c 128,-1,48
 368 366 368 366 386 412 c 0,49,50
 390 423 390 423 395 461 c 128,-1,51
 400 499 400 499 402 541 c 0,52,53
 406 615 406 615 416.5 649 c 128,-1,54
 427 683 427 683 450 696 c 0,55,56
 462 704 462 704 462 725 c 0,57,58
 462 739 462 739 456.5 752.5 c 128,-1,59
 451 766 451 766 441 773 c 0,60,61
 423 787 423 787 402 787 c 0,62,63
 383 787 383 787 358 774 c 0,64,65
 326 757 326 757 307 709.5 c 128,-1,66
 288 662 288 662 281 573 c 0,67,68
 272 469 272 469 247.5 417.5 c 128,-1,69
 223 366 223 366 168 334 c 0,70,71
 146 321 146 321 119 310.5 c 128,-1,72
 92 300 92 300 74 297 c 2,73,-1
 30 290 l 1,74,-1
 215 201 l 2,75,38
 278 172 278 172 306 172 c 0,39,40
1096 172 m 0,77,78
 1115 172 1115 172 1113 184 c 0,79,80
 1112 194 1112 194 1072.5 216 c 128,-1,81
 1033 238 1033 238 995 249 c 2,82,-1
 952 262 l 1,83,-1
 986 269 l 2,84,85
 1046 282 1046 282 1102 324 c 128,-1,86
 1158 366 1158 366 1176 412 c 0,87,88
 1180 423 1180 423 1185 461 c 128,-1,89
 1190 499 1190 499 1192 541 c 0,90,91
 1196 615 1196 615 1206.5 649 c 128,-1,92
 1217 683 1217 683 1240 696 c 0,93,94
 1252 704 1252 704 1252 725 c 0,95,96
 1252 739 1252 739 1246.5 752.5 c 128,-1,97
 1241 766 1241 766 1231 773 c 0,98,99
 1213 787 1213 787 1192 787 c 0,100,101
 1173 787 1173 787 1148 774 c 0,102,103
 1116 757 1116 757 1097 709.5 c 128,-1,104
 1078 662 1078 662 1071 573 c 0,105,106
 1062 469 1062 469 1037.5 417.5 c 128,-1,107
 1013 366 1013 366 958 334 c 0,108,109
 936 321 936 321 909 310.5 c 128,-1,110
 882 300 882 300 864 297 c 2,111,-1
 820 290 l 1,112,-1
 1005 201 l 2,113,76
 1068 172 1068 172 1096 172 c 0,77,78
562 172 m 0,115,116
 589 172 589 172 597 176 c 0,117,118
 608 180 608 180 608 189 c 0,119,120
 608 199 608 199 596 203 c 0,121,122
 585 207 585 207 577 223 c 128,-1,123
 569 239 569 239 553 293 c 0,124,125
 542 330 542 330 532 348 c 128,-1,126
 522 366 522 366 507 374 c 128,-1,127
 492 382 492 382 465 386 c 0,128,129
 446 389 446 389 428 389 c 0,130,131
 407 389 407 389 392.5 385 c 128,-1,132
 378 381 378 381 375 374 c 2,133,-1
 375 372 l 2,134,135
 375 369 375 369 379 365 c 128,-1,136
 383 361 383 361 390 359 c 0,137,138
 403 354 403 354 411 338 c 128,-1,139
 419 322 419 322 436 266 c 0,140,141
 448 226 448 226 462.5 206 c 128,-1,142
 477 186 477 186 501 179 c 0,143,114
 522 172 522 172 562 172 c 0,115,116
762 172 m 0,145,146
 789 172 789 172 797 176 c 0,147,148
 808 180 808 180 808 189 c 0,149,150
 808 199 808 199 796 203 c 0,151,152
 785 207 785 207 777 223 c 128,-1,153
 769 239 769 239 753 293 c 0,154,155
 742 330 742 330 732 348 c 128,-1,156
 722 366 722 366 707 374 c 128,-1,157
 692 382 692 382 665 386 c 0,158,159
 646 389 646 389 628 389 c 0,160,161
 607 389 607 389 592.5 385 c 128,-1,162
 578 381 578 381 575 374 c 2,163,-1
 575 372 l 2,164,165
 575 369 575 369 579 365 c 128,-1,166
 583 361 583 361 590 359 c 0,167,168
 603 354 603 354 611 338 c 128,-1,169
 619 322 619 322 636 266 c 0,170,171
 648 226 648 226 662.5 206 c 128,-1,172
 677 186 677 186 701 179 c 0,173,144
 722 172 722 172 762 172 c 0,145,146
1214 -52 m 0,175,176
 1220 -52 1220 -52 1223 -46.5 c 128,-1,177
 1226 -41 1226 -41 1226 -32 c 0,178,179
 1226 -9 1226 -9 1211 3 c 0,180,181
 1111 88 1111 88 981 107 c 0,182,183
 957 110 957 110 856 110 c 0,184,185
 740 110 740 110 610 107 c 0,186,187
 479 104 479 104 371 104 c 0,188,189
 259 104 259 104 226 108 c 0,190,191
 90 125 90 125 57 145 c 0,192,193
 53 148 53 148 47 148 c 0,194,195
 38 148 38 148 33.5 139.5 c 128,-1,196
 29 131 29 131 31 118 c 0,197,198
 38 80 38 80 88 51 c 128,-1,199
 138 22 138 22 223 7 c 0,200,201
 318 -9 318 -9 426 -9 c 2,202,-1
 463 -9 l 2,203,204
 583 -6 583 -6 850 -6 c 0,205,206
 971 -6 971 -6 987 -7 c 0,207,208
 1089 -14 1089 -14 1145 -28 c 0,209,210
 1163 -32 1163 -32 1182 -38.5 c 128,-1,211
 1201 -45 1201 -45 1206 -49 c 0,212,174
 1211 -52 1211 -52 1214 -52 c 0,175,176
EndSplineSet
Fore
SplineSet
706 442 m 0,1,2
 725 442 725 442 723 454 c 0,3,4
 722 464 722 464 682.5 486 c 128,-1,5
 643 508 643 508 605 519 c 2,6,-1
 562 532 l 1,7,-1
 596 539 l 2,8,9
 656 552 656 552 712 594 c 128,-1,10
 768 636 768 636 786 682 c 0,11,12
 790 693 790 693 795 731 c 128,-1,13
 800 769 800 769 802 811 c 0,14,15
 806 885 806 885 816.5 919 c 128,-1,16
 827 953 827 953 850 966 c 0,17,18
 862 974 862 974 862 995 c 0,19,20
 862 1009 862 1009 856.5 1022.5 c 128,-1,21
 851 1036 851 1036 841 1043 c 0,22,23
 823 1057 823 1057 802 1057 c 0,24,25
 783 1057 783 1057 758 1044 c 0,26,27
 726 1027 726 1027 707 979.5 c 128,-1,28
 688 932 688 932 681 843 c 0,29,30
 672 739 672 739 647.5 687.5 c 128,-1,31
 623 636 623 636 568 604 c 0,32,33
 546 591 546 591 519 580.5 c 128,-1,34
 492 570 492 570 474 567 c 2,35,-1
 430 560 l 1,36,-1
 615 471 l 2,37,0
 678 442 678 442 706 442 c 0,1,2
306 172 m 0,39,40
 325 172 325 172 323 184 c 0,41,42
 322 194 322 194 282.5 216 c 128,-1,43
 243 238 243 238 205 249 c 2,44,-1
 162 262 l 1,45,-1
 196 269 l 2,46,47
 256 282 256 282 312 324 c 128,-1,48
 368 366 368 366 386 412 c 0,49,50
 390 423 390 423 395 461 c 128,-1,51
 400 499 400 499 402 541 c 0,52,53
 406 615 406 615 416.5 649 c 128,-1,54
 427 683 427 683 450 696 c 0,55,56
 462 704 462 704 462 725 c 0,57,58
 462 739 462 739 456.5 752.5 c 128,-1,59
 451 766 451 766 441 773 c 0,60,61
 423 787 423 787 402 787 c 0,62,63
 383 787 383 787 358 774 c 0,64,65
 326 757 326 757 307 709.5 c 128,-1,66
 288 662 288 662 281 573 c 0,67,68
 272 469 272 469 247.5 417.5 c 128,-1,69
 223 366 223 366 168 334 c 0,70,71
 146 321 146 321 119 310.5 c 128,-1,72
 92 300 92 300 74 297 c 2,73,-1
 30 290 l 1,74,-1
 215 201 l 2,75,38
 278 172 278 172 306 172 c 0,39,40
1096 172 m 0,77,78
 1115 172 1115 172 1113 184 c 0,79,80
 1112 194 1112 194 1072.5 216 c 128,-1,81
 1033 238 1033 238 995 249 c 2,82,-1
 952 262 l 1,83,-1
 986 269 l 2,84,85
 1046 282 1046 282 1102 324 c 128,-1,86
 1158 366 1158 366 1176 412 c 0,87,88
 1180 423 1180 423 1185 461 c 128,-1,89
 1190 499 1190 499 1192 541 c 0,90,91
 1196 615 1196 615 1206.5 649 c 128,-1,92
 1217 683 1217 683 1240 696 c 0,93,94
 1252 704 1252 704 1252 725 c 0,95,96
 1252 739 1252 739 1246.5 752.5 c 128,-1,97
 1241 766 1241 766 1231 773 c 0,98,99
 1213 787 1213 787 1192 787 c 0,100,101
 1173 787 1173 787 1148 774 c 0,102,103
 1116 757 1116 757 1097 709.5 c 128,-1,104
 1078 662 1078 662 1071 573 c 0,105,106
 1062 469 1062 469 1037.5 417.5 c 128,-1,107
 1013 366 1013 366 958 334 c 0,108,109
 936 321 936 321 909 310.5 c 128,-1,110
 882 300 882 300 864 297 c 2,111,-1
 820 290 l 1,112,-1
 1005 201 l 2,113,76
 1068 172 1068 172 1096 172 c 0,77,78
562 172 m 0,115,116
 589 172 589 172 597 176 c 0,117,118
 608 180 608 180 608 189 c 0,119,120
 608 199 608 199 596 203 c 0,121,122
 585 207 585 207 577 223 c 128,-1,123
 569 239 569 239 553 293 c 0,124,125
 542 330 542 330 532 348 c 128,-1,126
 522 366 522 366 507 374 c 128,-1,127
 492 382 492 382 465 386 c 0,128,129
 446 389 446 389 428 389 c 0,130,131
 407 389 407 389 392.5 385 c 128,-1,132
 378 381 378 381 375 374 c 2,133,-1
 375 372 l 2,134,135
 375 369 375 369 379 365 c 128,-1,136
 383 361 383 361 390 359 c 0,137,138
 403 354 403 354 411 338 c 128,-1,139
 419 322 419 322 436 266 c 0,140,141
 448 226 448 226 462.5 206 c 128,-1,142
 477 186 477 186 501 179 c 0,143,114
 522 172 522 172 562 172 c 0,115,116
762 172 m 0,145,146
 789 172 789 172 797 176 c 0,147,148
 808 180 808 180 808 189 c 0,149,150
 808 199 808 199 796 203 c 0,151,152
 785 207 785 207 777 223 c 128,-1,153
 769 239 769 239 753 293 c 0,154,155
 742 330 742 330 732 348 c 128,-1,156
 722 366 722 366 707 374 c 128,-1,157
 692 382 692 382 665 386 c 0,158,159
 646 389 646 389 628 389 c 0,160,161
 607 389 607 389 592.5 385 c 128,-1,162
 578 381 578 381 575 374 c 2,163,-1
 575 372 l 2,164,165
 575 369 575 369 579 365 c 128,-1,166
 583 361 583 361 590 359 c 0,167,168
 603 354 603 354 611 338 c 128,-1,169
 619 322 619 322 636 266 c 0,170,171
 648 226 648 226 662.5 206 c 128,-1,172
 677 186 677 186 701 179 c 0,173,144
 722 172 722 172 762 172 c 0,145,146
1214 -52 m 0,175,176
 1220 -52 1220 -52 1223 -46.5 c 128,-1,177
 1226 -41 1226 -41 1226 -32 c 0,178,179
 1226 -9 1226 -9 1211 3 c 0,180,181
 1111 88 1111 88 981 107 c 0,182,183
 957 110 957 110 856 110 c 0,184,185
 740 110 740 110 610 107 c 0,186,187
 479 104 479 104 371 104 c 0,188,189
 259 104 259 104 226 108 c 0,190,191
 90 125 90 125 57 145 c 0,192,193
 53 148 53 148 47 148 c 0,194,195
 38 148 38 148 33.5 139.5 c 128,-1,196
 29 131 29 131 31 118 c 0,197,198
 38 80 38 80 88 51 c 128,-1,199
 138 22 138 22 223 7 c 0,200,201
 318 -9 318 -9 426 -9 c 2,202,-1
 463 -9 l 2,203,204
 583 -6 583 -6 850 -6 c 0,205,206
 971 -6 971 -6 987 -7 c 0,207,208
 1089 -14 1089 -14 1145 -28 c 0,209,210
 1163 -32 1163 -32 1182 -38.5 c 128,-1,211
 1201 -45 1201 -45 1206 -49 c 0,212,174
 1211 -52 1211 -52 1214 -52 c 0,175,176
EndSplineSet
EndChar

StartChar: four
Encoding: 52 52 15
Width: 1362
GlyphClass: 1
Flags: W
LayerCount: 2
Back
SplineSet
718 413 m 0,1,2
 737 413 737 413 735 425 c 0,3,4
 734 435 734 435 694.5 457 c 128,-1,5
 655 479 655 479 617 490 c 2,6,-1
 574 503 l 1,7,-1
 608 510 l 2,8,9
 668 523 668 523 724 565 c 128,-1,10
 780 607 780 607 798 653 c 0,11,12
 802 664 802 664 807 702 c 128,-1,13
 812 740 812 740 814 782 c 0,14,15
 818 856 818 856 828.5 890 c 128,-1,16
 839 924 839 924 862 937 c 0,17,18
 874 945 874 945 874 966 c 0,19,20
 874 980 874 980 868.5 993.5 c 128,-1,21
 863 1007 863 1007 853 1014 c 0,22,23
 835 1028 835 1028 814 1028 c 0,24,25
 795 1028 795 1028 770 1015 c 0,26,27
 738 998 738 998 719 950.5 c 128,-1,28
 700 903 700 903 693 814 c 0,29,30
 684 710 684 710 659.5 658.5 c 128,-1,31
 635 607 635 607 580 575 c 0,32,33
 558 562 558 562 531 551.5 c 128,-1,34
 504 541 504 541 486 538 c 2,35,-1
 442 531 l 1,36,-1
 627 442 l 2,37,0
 690 413 690 413 718 413 c 0,1,2
306 172 m 0,39,40
 325 172 325 172 323 184 c 0,41,42
 322 194 322 194 282.5 216 c 128,-1,43
 243 238 243 238 205 249 c 2,44,-1
 162 262 l 1,45,-1
 196 269 l 2,46,47
 256 282 256 282 312 324 c 128,-1,48
 368 366 368 366 386 412 c 0,49,50
 390 423 390 423 395 461 c 128,-1,51
 400 499 400 499 402 541 c 0,52,53
 406 615 406 615 416.5 649 c 128,-1,54
 427 683 427 683 450 696 c 0,55,56
 462 704 462 704 462 725 c 0,57,58
 462 739 462 739 456.5 752.5 c 128,-1,59
 451 766 451 766 441 773 c 0,60,61
 423 787 423 787 402 787 c 0,62,63
 383 787 383 787 358 774 c 0,64,65
 326 757 326 757 307 709.5 c 128,-1,66
 288 662 288 662 281 573 c 0,67,68
 272 469 272 469 247.5 417.5 c 128,-1,69
 223 366 223 366 168 334 c 0,70,71
 146 321 146 321 119 310.5 c 128,-1,72
 92 300 92 300 74 297 c 2,73,-1
 30 290 l 1,74,-1
 215 201 l 2,75,38
 278 172 278 172 306 172 c 0,39,40
1176 172 m 0,77,78
 1195 172 1195 172 1193 184 c 0,79,80
 1192 194 1192 194 1152.5 216 c 128,-1,81
 1113 238 1113 238 1075 249 c 2,82,-1
 1032 262 l 1,83,-1
 1066 269 l 2,84,85
 1126 282 1126 282 1182 324 c 128,-1,86
 1238 366 1238 366 1256 412 c 0,87,88
 1260 423 1260 423 1265 461 c 128,-1,89
 1270 499 1270 499 1272 541 c 0,90,91
 1276 615 1276 615 1286.5 649 c 128,-1,92
 1297 683 1297 683 1320 696 c 0,93,94
 1332 704 1332 704 1332 725 c 0,95,96
 1332 739 1332 739 1326.5 752.5 c 128,-1,97
 1321 766 1321 766 1311 773 c 0,98,99
 1293 787 1293 787 1272 787 c 0,100,101
 1253 787 1253 787 1228 774 c 0,102,103
 1196 757 1196 757 1177 709.5 c 128,-1,104
 1158 662 1158 662 1151 573 c 0,105,106
 1142 469 1142 469 1117.5 417.5 c 128,-1,107
 1093 366 1093 366 1038 334 c 0,108,109
 1016 321 1016 321 989 310.5 c 128,-1,110
 962 300 962 300 944 297 c 2,111,-1
 900 290 l 1,112,-1
 1085 201 l 2,113,76
 1148 172 1148 172 1176 172 c 0,77,78
649 186 m 0,115,116
 676 186 676 186 684 190 c 0,117,118
 695 194 695 194 695 203 c 0,119,120
 695 213 695 213 683 217 c 0,121,122
 672 221 672 221 664 237 c 128,-1,123
 656 253 656 253 640 307 c 0,124,125
 629 344 629 344 619 362 c 128,-1,126
 609 380 609 380 594 388 c 128,-1,127
 579 396 579 396 552 400 c 0,128,129
 532 403 532 403 515 403 c 0,130,131
 494 403 494 403 479.5 399 c 128,-1,132
 465 395 465 395 462 388 c 2,133,-1
 462 386 l 2,134,135
 462 383 462 383 466 379 c 128,-1,136
 470 375 470 375 477 373 c 0,137,138
 490 368 490 368 498 352 c 128,-1,139
 506 336 506 336 523 280 c 0,140,141
 535 240 535 240 549.5 220 c 128,-1,142
 564 200 564 200 588 193 c 0,143,114
 609 186 609 186 649 186 c 0,115,116
1214 -52 m 0,145,146
 1220 -52 1220 -52 1223 -46.5 c 128,-1,147
 1226 -41 1226 -41 1226 -32 c 0,148,149
 1226 -9 1226 -9 1211 3 c 0,150,151
 1111 88 1111 88 981 107 c 0,152,153
 957 110 957 110 856 110 c 0,154,155
 740 110 740 110 610 107 c 0,156,157
 479 104 479 104 371 104 c 0,158,159
 259 104 259 104 226 108 c 0,160,161
 90 125 90 125 57 145 c 0,162,163
 53 148 53 148 47 148 c 0,164,165
 38 148 38 148 33.5 139.5 c 128,-1,166
 29 131 29 131 31 118 c 0,167,168
 38 80 38 80 88 51 c 128,-1,169
 138 22 138 22 223 7 c 0,170,171
 318 -9 318 -9 426 -9 c 2,172,-1
 463 -9 l 2,173,174
 583 -6 583 -6 850 -6 c 0,175,176
 971 -6 971 -6 987 -7 c 0,177,178
 1089 -14 1089 -14 1145 -28 c 0,179,180
 1163 -32 1163 -32 1182 -38.5 c 128,-1,181
 1201 -45 1201 -45 1206 -49 c 0,182,144
 1211 -52 1211 -52 1214 -52 c 0,145,146
EndSplineSet
Fore
SplineSet
718 413 m 0,1,2
 737 413 737 413 735 425 c 0,3,4
 734 435 734 435 694.5 457 c 128,-1,5
 655 479 655 479 617 490 c 2,6,-1
 574 503 l 1,7,-1
 608 510 l 2,8,9
 668 523 668 523 724 565 c 128,-1,10
 780 607 780 607 798 653 c 0,11,12
 802 664 802 664 807 702 c 128,-1,13
 812 740 812 740 814 782 c 0,14,15
 818 856 818 856 828.5 890 c 128,-1,16
 839 924 839 924 862 937 c 0,17,18
 874 945 874 945 874 966 c 0,19,20
 874 980 874 980 868.5 993.5 c 128,-1,21
 863 1007 863 1007 853 1014 c 0,22,23
 835 1028 835 1028 814 1028 c 0,24,25
 795 1028 795 1028 770 1015 c 0,26,27
 738 998 738 998 719 950.5 c 128,-1,28
 700 903 700 903 693 814 c 0,29,30
 684 710 684 710 659.5 658.5 c 128,-1,31
 635 607 635 607 580 575 c 0,32,33
 558 562 558 562 531 551.5 c 128,-1,34
 504 541 504 541 486 538 c 2,35,-1
 442 531 l 1,36,-1
 627 442 l 2,37,0
 690 413 690 413 718 413 c 0,1,2
306 172 m 0,39,40
 325 172 325 172 323 184 c 0,41,42
 322 194 322 194 282.5 216 c 128,-1,43
 243 238 243 238 205 249 c 2,44,-1
 162 262 l 1,45,-1
 196 269 l 2,46,47
 256 282 256 282 312 324 c 128,-1,48
 368 366 368 366 386 412 c 0,49,50
 390 423 390 423 395 461 c 128,-1,51
 400 499 400 499 402 541 c 0,52,53
 406 615 406 615 416.5 649 c 128,-1,54
 427 683 427 683 450 696 c 0,55,56
 462 704 462 704 462 725 c 0,57,58
 462 739 462 739 456.5 752.5 c 128,-1,59
 451 766 451 766 441 773 c 0,60,61
 423 787 423 787 402 787 c 0,62,63
 383 787 383 787 358 774 c 0,64,65
 326 757 326 757 307 709.5 c 128,-1,66
 288 662 288 662 281 573 c 0,67,68
 272 469 272 469 247.5 417.5 c 128,-1,69
 223 366 223 366 168 334 c 0,70,71
 146 321 146 321 119 310.5 c 128,-1,72
 92 300 92 300 74 297 c 2,73,-1
 30 290 l 1,74,-1
 215 201 l 2,75,38
 278 172 278 172 306 172 c 0,39,40
1176 172 m 0,77,78
 1195 172 1195 172 1193 184 c 0,79,80
 1192 194 1192 194 1152.5 216 c 128,-1,81
 1113 238 1113 238 1075 249 c 2,82,-1
 1032 262 l 1,83,-1
 1066 269 l 2,84,85
 1126 282 1126 282 1182 324 c 128,-1,86
 1238 366 1238 366 1256 412 c 0,87,88
 1260 423 1260 423 1265 461 c 128,-1,89
 1270 499 1270 499 1272 541 c 0,90,91
 1276 615 1276 615 1286.5 649 c 128,-1,92
 1297 683 1297 683 1320 696 c 0,93,94
 1332 704 1332 704 1332 725 c 0,95,96
 1332 739 1332 739 1326.5 752.5 c 128,-1,97
 1321 766 1321 766 1311 773 c 0,98,99
 1293 787 1293 787 1272 787 c 0,100,101
 1253 787 1253 787 1228 774 c 0,102,103
 1196 757 1196 757 1177 709.5 c 128,-1,104
 1158 662 1158 662 1151 573 c 0,105,106
 1142 469 1142 469 1117.5 417.5 c 128,-1,107
 1093 366 1093 366 1038 334 c 0,108,109
 1016 321 1016 321 989 310.5 c 128,-1,110
 962 300 962 300 944 297 c 2,111,-1
 900 290 l 1,112,-1
 1085 201 l 2,113,76
 1148 172 1148 172 1176 172 c 0,77,78
649 186 m 0,115,116
 676 186 676 186 684 190 c 0,117,118
 695 194 695 194 695 203 c 0,119,120
 695 213 695 213 683 217 c 0,121,122
 672 221 672 221 664 237 c 128,-1,123
 656 253 656 253 640 307 c 0,124,125
 629 344 629 344 619 362 c 128,-1,126
 609 380 609 380 594 388 c 128,-1,127
 579 396 579 396 552 400 c 0,128,129
 532 403 532 403 515 403 c 0,130,131
 494 403 494 403 479.5 399 c 128,-1,132
 465 395 465 395 462 388 c 2,133,-1
 462 386 l 2,134,135
 462 383 462 383 466 379 c 128,-1,136
 470 375 470 375 477 373 c 0,137,138
 490 368 490 368 498 352 c 128,-1,139
 506 336 506 336 523 280 c 0,140,141
 535 240 535 240 549.5 220 c 128,-1,142
 564 200 564 200 588 193 c 0,143,114
 609 186 609 186 649 186 c 0,115,116
1214 -52 m 0,145,146
 1220 -52 1220 -52 1223 -46.5 c 128,-1,147
 1226 -41 1226 -41 1226 -32 c 0,148,149
 1226 -9 1226 -9 1211 3 c 0,150,151
 1111 88 1111 88 981 107 c 0,152,153
 957 110 957 110 856 110 c 0,154,155
 740 110 740 110 610 107 c 0,156,157
 479 104 479 104 371 104 c 0,158,159
 259 104 259 104 226 108 c 0,160,161
 90 125 90 125 57 145 c 0,162,163
 53 148 53 148 47 148 c 0,164,165
 38 148 38 148 33.5 139.5 c 128,-1,166
 29 131 29 131 31 118 c 0,167,168
 38 80 38 80 88 51 c 128,-1,169
 138 22 138 22 223 7 c 0,170,171
 318 -9 318 -9 426 -9 c 2,172,-1
 463 -9 l 2,173,174
 583 -6 583 -6 850 -6 c 0,175,176
 971 -6 971 -6 987 -7 c 0,177,178
 1089 -14 1089 -14 1145 -28 c 0,179,180
 1163 -32 1163 -32 1182 -38.5 c 128,-1,181
 1201 -45 1201 -45 1206 -49 c 0,182,144
 1211 -52 1211 -52 1214 -52 c 0,145,146
EndSplineSet
EndChar

StartChar: braceleft
Encoding: 123 123 16
Width: 0
GlyphClass: 1
Flags: W
LayerCount: 2
Back
SplineSet
-261 -122.5 m 128,-1,1
 -243 -125 -243 -125 -218 -125 c 0,2,3
 -186 -125 -186 -125 -174.5 -123.5 c 128,-1,4
 -163 -122 -163 -122 -157.5 -115.5 c 128,-1,5
 -152 -109 -152 -109 -144 -91 c 0,6,7
 -138 -77 -138 -77 -128.5 -63.5 c 128,-1,8
 -119 -50 -119 -50 -112 -46 c 0,9,10
 -102 -40 -102 -40 -112 -38 c 128,-1,11
 -122 -36 -122 -36 -161 -35 c 0,12,13
 -197 -35 -197 -35 -209.5 -36.5 c 128,-1,14
 -222 -38 -222 -38 -227.5 -43.5 c 128,-1,15
 -233 -49 -233 -49 -238 -65 c 0,16,17
 -243 -78 -243 -78 -250 -88.5 c 128,-1,18
 -257 -99 -257 -99 -264 -101 c 0,19,20
 -270 -103 -270 -103 -274.5 -107.5 c 128,-1,21
 -279 -112 -279 -112 -279 -116 c 256,22,0
 -279 -120 -279 -120 -261 -122.5 c 128,-1,1
-76 -122.5 m 128,-1,24
 -58 -125 -58 -125 -33 -125 c 0,25,26
 -1 -125 -1 -125 10.5 -123.5 c 128,-1,27
 22 -122 22 -122 27.5 -115.5 c 128,-1,28
 33 -109 33 -109 41 -91 c 0,29,30
 47 -77 47 -77 56.5 -63.5 c 128,-1,31
 66 -50 66 -50 73 -46 c 0,32,33
 83 -40 83 -40 73 -38 c 128,-1,34
 63 -36 63 -36 24 -35 c 0,35,36
 -12 -35 -12 -35 -24.5 -36.5 c 128,-1,37
 -37 -38 -37 -38 -42.5 -43.5 c 128,-1,38
 -48 -49 -48 -49 -53 -65 c 0,39,40
 -58 -78 -58 -78 -65 -88.5 c 128,-1,41
 -72 -99 -72 -99 -79 -101 c 0,42,43
 -85 -103 -85 -103 -89.5 -107.5 c 128,-1,44
 -94 -112 -94 -112 -94 -116 c 256,45,23
 -94 -120 -94 -120 -76 -122.5 c 128,-1,24
109 -122.5 m 128,-1,47
 127 -125 127 -125 152 -125 c 0,48,49
 184 -125 184 -125 195.5 -123.5 c 128,-1,50
 207 -122 207 -122 212.5 -115.5 c 128,-1,51
 218 -109 218 -109 226 -91 c 0,52,53
 232 -77 232 -77 241.5 -63.5 c 128,-1,54
 251 -50 251 -50 258 -46 c 0,55,56
 268 -40 268 -40 258 -38 c 128,-1,57
 248 -36 248 -36 209 -35 c 0,58,59
 173 -35 173 -35 160.5 -36.5 c 128,-1,60
 148 -38 148 -38 142.5 -43.5 c 128,-1,61
 137 -49 137 -49 132 -65 c 0,62,63
 127 -78 127 -78 120 -88.5 c 128,-1,64
 113 -99 113 -99 106 -101 c 0,65,66
 100 -103 100 -103 95.5 -107.5 c 128,-1,67
 91 -112 91 -112 91 -116 c 256,68,46
 91 -120 91 -120 109 -122.5 c 128,-1,47
668 -349 m 0,70,71
 726 -349 726 -349 780 -337 c 0,72,73
 834 -326 834 -326 860 -308 c 128,-1,74
 886 -290 886 -290 886 -262 c 0,75,76
 886 -248 886 -248 881 -235 c 0,77,78
 872 -211 872 -211 843.5 -194 c 128,-1,79
 815 -177 815 -177 784 -177 c 0,80,81
 770 -177 770 -177 759 -181 c 0,82,83
 746 -186 746 -186 746 -198 c 0,84,85
 746 -208 746 -208 759 -232 c 0,86,87
 769 -249 769 -249 769 -263 c 0,88,89
 769 -298 769 -298 693 -298 c 0,90,91
 603 -298 603 -298 416 -251 c 0,92,93
 253 -211 253 -211 174.5 -198 c 128,-1,94
 96 -185 96 -185 23 -185 c 0,95,96
 -38 -186 -38 -186 -93.5 -197.5 c 128,-1,97
 -149 -209 -149 -209 -303 -254 c 0,98,99
 -338 -265 -338 -265 -389 -273.5 c 128,-1,100
 -440 -282 -440 -282 -464 -282 c 0,101,102
 -498 -282 -498 -282 -523.5 -273.5 c 128,-1,103
 -549 -265 -549 -265 -551 -251 c 0,104,105
 -552 -247 -552 -247 -544 -235 c 128,-1,106
 -536 -223 -536 -223 -532 -216 c 0,107,108
 -524 -202 -524 -202 -518.5 -187.5 c 128,-1,109
 -513 -173 -513 -173 -513 -168 c 0,110,111
 -513 -157 -513 -157 -522.5 -151 c 128,-1,112
 -532 -145 -532 -145 -547 -145 c 0,113,114
 -574 -145 -574 -145 -599 -162 c 0,115,116
 -612 -171 -612 -171 -616 -181 c 128,-1,117
 -620 -191 -620 -191 -620 -212 c 0,118,119
 -620 -247 -620 -247 -602.5 -273.5 c 128,-1,120
 -585 -300 -585 -300 -551 -316 c 0,121,122
 -505 -339 -505 -339 -442 -339 c 0,123,124
 -366 -339 -366 -339 -262 -303 c 0,125,126
 -197 -280 -197 -280 -136.5 -269 c 128,-1,127
 -76 -258 -76 -258 -6 -258 c 0,128,129
 73 -258 73 -258 175 -272 c 128,-1,130
 277 -286 277 -286 421 -317 c 0,131,69
 575 -349 575 -349 668 -349 c 0,70,71
EndSplineSet
Fore
SplineSet
-261 -122.5 m 128,-1,1
 -243 -125 -243 -125 -218 -125 c 0,2,3
 -186 -125 -186 -125 -174.5 -123.5 c 128,-1,4
 -163 -122 -163 -122 -157.5 -115.5 c 128,-1,5
 -152 -109 -152 -109 -144 -91 c 0,6,7
 -138 -77 -138 -77 -128.5 -63.5 c 128,-1,8
 -119 -50 -119 -50 -112 -46 c 0,9,10
 -102 -40 -102 -40 -112 -38 c 128,-1,11
 -122 -36 -122 -36 -161 -35 c 0,12,13
 -197 -35 -197 -35 -209.5 -36.5 c 128,-1,14
 -222 -38 -222 -38 -227.5 -43.5 c 128,-1,15
 -233 -49 -233 -49 -238 -65 c 0,16,17
 -243 -78 -243 -78 -250 -88.5 c 128,-1,18
 -257 -99 -257 -99 -264 -101 c 0,19,20
 -270 -103 -270 -103 -274.5 -107.5 c 128,-1,21
 -279 -112 -279 -112 -279 -116 c 256,22,0
 -279 -120 -279 -120 -261 -122.5 c 128,-1,1
-76 -122.5 m 128,-1,24
 -58 -125 -58 -125 -33 -125 c 0,25,26
 -1 -125 -1 -125 10.5 -123.5 c 128,-1,27
 22 -122 22 -122 27.5 -115.5 c 128,-1,28
 33 -109 33 -109 41 -91 c 0,29,30
 47 -77 47 -77 56.5 -63.5 c 128,-1,31
 66 -50 66 -50 73 -46 c 0,32,33
 83 -40 83 -40 73 -38 c 128,-1,34
 63 -36 63 -36 24 -35 c 0,35,36
 -12 -35 -12 -35 -24.5 -36.5 c 128,-1,37
 -37 -38 -37 -38 -42.5 -43.5 c 128,-1,38
 -48 -49 -48 -49 -53 -65 c 0,39,40
 -58 -78 -58 -78 -65 -88.5 c 128,-1,41
 -72 -99 -72 -99 -79 -101 c 0,42,43
 -85 -103 -85 -103 -89.5 -107.5 c 128,-1,44
 -94 -112 -94 -112 -94 -116 c 256,45,23
 -94 -120 -94 -120 -76 -122.5 c 128,-1,24
109 -122.5 m 128,-1,47
 127 -125 127 -125 152 -125 c 0,48,49
 184 -125 184 -125 195.5 -123.5 c 128,-1,50
 207 -122 207 -122 212.5 -115.5 c 128,-1,51
 218 -109 218 -109 226 -91 c 0,52,53
 232 -77 232 -77 241.5 -63.5 c 128,-1,54
 251 -50 251 -50 258 -46 c 0,55,56
 268 -40 268 -40 258 -38 c 128,-1,57
 248 -36 248 -36 209 -35 c 0,58,59
 173 -35 173 -35 160.5 -36.5 c 128,-1,60
 148 -38 148 -38 142.5 -43.5 c 128,-1,61
 137 -49 137 -49 132 -65 c 0,62,63
 127 -78 127 -78 120 -88.5 c 128,-1,64
 113 -99 113 -99 106 -101 c 0,65,66
 100 -103 100 -103 95.5 -107.5 c 128,-1,67
 91 -112 91 -112 91 -116 c 256,68,46
 91 -120 91 -120 109 -122.5 c 128,-1,47
668 -349 m 0,70,71
 726 -349 726 -349 780 -337 c 0,72,73
 834 -326 834 -326 860 -308 c 128,-1,74
 886 -290 886 -290 886 -262 c 0,75,76
 886 -248 886 -248 881 -235 c 0,77,78
 872 -211 872 -211 843.5 -194 c 128,-1,79
 815 -177 815 -177 784 -177 c 0,80,81
 770 -177 770 -177 759 -181 c 0,82,83
 746 -186 746 -186 746 -198 c 0,84,85
 746 -208 746 -208 759 -232 c 0,86,87
 769 -249 769 -249 769 -263 c 0,88,89
 769 -298 769 -298 693 -298 c 0,90,91
 603 -298 603 -298 416 -251 c 0,92,93
 253 -211 253 -211 174.5 -198 c 128,-1,94
 96 -185 96 -185 23 -185 c 0,95,96
 -38 -186 -38 -186 -93.5 -197.5 c 128,-1,97
 -149 -209 -149 -209 -303 -254 c 0,98,99
 -338 -265 -338 -265 -389 -273.5 c 128,-1,100
 -440 -282 -440 -282 -464 -282 c 0,101,102
 -498 -282 -498 -282 -523.5 -273.5 c 128,-1,103
 -549 -265 -549 -265 -551 -251 c 0,104,105
 -552 -247 -552 -247 -544 -235 c 128,-1,106
 -536 -223 -536 -223 -532 -216 c 0,107,108
 -524 -202 -524 -202 -518.5 -187.5 c 128,-1,109
 -513 -173 -513 -173 -513 -168 c 0,110,111
 -513 -157 -513 -157 -522.5 -151 c 128,-1,112
 -532 -145 -532 -145 -547 -145 c 0,113,114
 -574 -145 -574 -145 -599 -162 c 0,115,116
 -612 -171 -612 -171 -616 -181 c 128,-1,117
 -620 -191 -620 -191 -620 -212 c 0,118,119
 -620 -247 -620 -247 -602.5 -273.5 c 128,-1,120
 -585 -300 -585 -300 -551 -316 c 0,121,122
 -505 -339 -505 -339 -442 -339 c 0,123,124
 -366 -339 -366 -339 -262 -303 c 0,125,126
 -197 -280 -197 -280 -136.5 -269 c 128,-1,127
 -76 -258 -76 -258 -6 -258 c 0,128,129
 73 -258 73 -258 175 -272 c 128,-1,130
 277 -286 277 -286 421 -317 c 0,131,69
 575 -349 575 -349 668 -349 c 0,70,71
EndSplineSet
EndChar

StartChar: braceright
Encoding: 125 125 17
Width: 0
GlyphClass: 1
Flags: W
LayerCount: 2
Back
SplineSet
623 -548 m 256,1,2
 651 -548 651 -548 701 -546 c 0,3,4
 771 -542 771 -542 829.5 -524.5 c 128,-1,5
 888 -507 888 -507 954 -470 c 128,-1,6
 1020 -433 1020 -433 1113 -366 c 0,7,8
 1180 -317 1180 -317 1262 -265 c 0,9,10
 1294 -245 1294 -245 1310 -228 c 128,-1,11
 1326 -211 1326 -211 1318 -204 c 0,12,13
 1313 -199 1313 -199 1269 -199 c 0,14,15
 1238 -199 1238 -199 1202 -202 c 128,-1,16
 1166 -205 1166 -205 1145 -209 c 0,17,18
 1099 -219 1099 -219 1074 -228 c 128,-1,19
 1049 -237 1049 -237 1035 -252 c 0,20,21
 1015 -272 1015 -272 963 -312.5 c 128,-1,22
 911 -353 911 -353 874 -376 c 0,23,24
 775 -438 775 -438 696 -465 c 0,25,26
 639 -484 639 -484 574 -484 c 0,27,28
 476 -484 476 -484 355 -441 c 0,29,30
 345 -438 345 -438 318.5 -428.5 c 128,-1,31
 292 -419 292 -419 284 -419 c 0,32,33
 275 -419 275 -419 271 -426 c 0,34,35
 268 -431 268 -431 268 -435 c 0,36,37
 268 -452 268 -452 326 -477 c 0,38,39
 448 -533 448 -533 587 -547 c 0,40,0
 595 -548 595 -548 623 -548 c 256,1,2
EndSplineSet
Fore
SplineSet
623 -548 m 256,1,2
 651 -548 651 -548 701 -546 c 0,3,4
 771 -542 771 -542 829.5 -524.5 c 128,-1,5
 888 -507 888 -507 954 -470 c 128,-1,6
 1020 -433 1020 -433 1113 -366 c 0,7,8
 1180 -317 1180 -317 1262 -265 c 0,9,10
 1294 -245 1294 -245 1310 -228 c 128,-1,11
 1326 -211 1326 -211 1318 -204 c 0,12,13
 1313 -199 1313 -199 1269 -199 c 0,14,15
 1238 -199 1238 -199 1202 -202 c 128,-1,16
 1166 -205 1166 -205 1145 -209 c 0,17,18
 1099 -219 1099 -219 1074 -228 c 128,-1,19
 1049 -237 1049 -237 1035 -252 c 0,20,21
 1015 -272 1015 -272 963 -312.5 c 128,-1,22
 911 -353 911 -353 874 -376 c 0,23,24
 775 -438 775 -438 696 -465 c 0,25,26
 639 -484 639 -484 574 -484 c 0,27,28
 476 -484 476 -484 355 -441 c 0,29,30
 345 -438 345 -438 318.5 -428.5 c 128,-1,31
 292 -419 292 -419 284 -419 c 0,32,33
 275 -419 275 -419 271 -426 c 0,34,35
 268 -431 268 -431 268 -435 c 0,36,37
 268 -452 268 -452 326 -477 c 0,38,39
 448 -533 448 -533 587 -547 c 0,40,0
 595 -548 595 -548 623 -548 c 256,1,2
EndSplineSet
EndChar

StartChar: bracketleft
Encoding: 91 91 18
Width: 0
GlyphClass: 1
Flags: W
LayerCount: 2
Back
SplineSet
-261 -127.5 m 128,-1,1
 -243 -130 -243 -130 -218 -130 c 0,2,3
 -186 -130 -186 -130 -174.5 -128.5 c 128,-1,4
 -163 -127 -163 -127 -157.5 -120.5 c 128,-1,5
 -152 -114 -152 -114 -144 -96 c 0,6,7
 -138 -82 -138 -82 -128.5 -68.5 c 128,-1,8
 -119 -55 -119 -55 -112 -51 c 0,9,10
 -102 -45 -102 -45 -112 -43 c 128,-1,11
 -122 -41 -122 -41 -161 -40 c 0,12,13
 -197 -40 -197 -40 -209.5 -41.5 c 128,-1,14
 -222 -43 -222 -43 -227.5 -48.5 c 128,-1,15
 -233 -54 -233 -54 -238 -70 c 0,16,17
 -243 -83 -243 -83 -250 -93.5 c 128,-1,18
 -257 -104 -257 -104 -264 -106 c 0,19,20
 -270 -108 -270 -108 -274.5 -112.5 c 128,-1,21
 -279 -117 -279 -117 -279 -121 c 256,22,0
 -279 -125 -279 -125 -261 -127.5 c 128,-1,1
-76 -127.5 m 128,-1,24
 -58 -130 -58 -130 -33 -130 c 0,25,26
 -1 -130 -1 -130 10.5 -128.5 c 128,-1,27
 22 -127 22 -127 27.5 -120.5 c 128,-1,28
 33 -114 33 -114 41 -96 c 0,29,30
 47 -82 47 -82 56.5 -68.5 c 128,-1,31
 66 -55 66 -55 73 -51 c 0,32,33
 83 -45 83 -45 73 -43 c 128,-1,34
 63 -41 63 -41 24 -40 c 0,35,36
 -12 -40 -12 -40 -24.5 -41.5 c 128,-1,37
 -37 -43 -37 -43 -42.5 -48.5 c 128,-1,38
 -48 -54 -48 -54 -53 -70 c 0,39,40
 -58 -83 -58 -83 -65 -93.5 c 128,-1,41
 -72 -104 -72 -104 -79 -106 c 0,42,43
 -85 -108 -85 -108 -89.5 -112.5 c 128,-1,44
 -94 -117 -94 -117 -94 -121 c 256,45,23
 -94 -125 -94 -125 -76 -127.5 c 128,-1,24
668 -349 m 0,47,48
 726 -349 726 -349 780 -337 c 0,49,50
 834 -326 834 -326 860 -308 c 128,-1,51
 886 -290 886 -290 886 -262 c 0,52,53
 886 -248 886 -248 881 -235 c 0,54,55
 872 -211 872 -211 843.5 -194 c 128,-1,56
 815 -177 815 -177 784 -177 c 0,57,58
 770 -177 770 -177 759 -181 c 0,59,60
 746 -186 746 -186 746 -198 c 0,61,62
 746 -208 746 -208 759 -232 c 0,63,64
 769 -249 769 -249 769 -263 c 0,65,66
 769 -298 769 -298 693 -298 c 0,67,68
 603 -298 603 -298 416 -251 c 0,69,70
 253 -211 253 -211 174.5 -198 c 128,-1,71
 96 -185 96 -185 23 -185 c 0,72,73
 -38 -186 -38 -186 -93.5 -197.5 c 128,-1,74
 -149 -209 -149 -209 -303 -254 c 0,75,76
 -338 -265 -338 -265 -389 -273.5 c 128,-1,77
 -440 -282 -440 -282 -464 -282 c 0,78,79
 -498 -282 -498 -282 -523.5 -273.5 c 128,-1,80
 -549 -265 -549 -265 -551 -251 c 0,81,82
 -552 -247 -552 -247 -544 -235 c 128,-1,83
 -536 -223 -536 -223 -532 -216 c 0,84,85
 -524 -202 -524 -202 -518.5 -187.5 c 128,-1,86
 -513 -173 -513 -173 -513 -168 c 0,87,88
 -513 -157 -513 -157 -522.5 -151 c 128,-1,89
 -532 -145 -532 -145 -547 -145 c 0,90,91
 -574 -145 -574 -145 -599 -162 c 0,92,93
 -612 -171 -612 -171 -616 -181 c 128,-1,94
 -620 -191 -620 -191 -620 -212 c 0,95,96
 -620 -247 -620 -247 -602.5 -273.5 c 128,-1,97
 -585 -300 -585 -300 -551 -316 c 0,98,99
 -505 -339 -505 -339 -442 -339 c 0,100,101
 -366 -339 -366 -339 -262 -303 c 0,102,103
 -197 -280 -197 -280 -136.5 -269 c 128,-1,104
 -76 -258 -76 -258 -6 -258 c 0,105,106
 73 -258 73 -258 175 -272 c 128,-1,107
 277 -286 277 -286 421 -317 c 0,108,46
 575 -349 575 -349 668 -349 c 0,47,48
EndSplineSet
Fore
SplineSet
-261 -127.5 m 128,-1,1
 -243 -130 -243 -130 -218 -130 c 0,2,3
 -186 -130 -186 -130 -174.5 -128.5 c 128,-1,4
 -163 -127 -163 -127 -157.5 -120.5 c 128,-1,5
 -152 -114 -152 -114 -144 -96 c 0,6,7
 -138 -82 -138 -82 -128.5 -68.5 c 128,-1,8
 -119 -55 -119 -55 -112 -51 c 0,9,10
 -102 -45 -102 -45 -112 -43 c 128,-1,11
 -122 -41 -122 -41 -161 -40 c 0,12,13
 -197 -40 -197 -40 -209.5 -41.5 c 128,-1,14
 -222 -43 -222 -43 -227.5 -48.5 c 128,-1,15
 -233 -54 -233 -54 -238 -70 c 0,16,17
 -243 -83 -243 -83 -250 -93.5 c 128,-1,18
 -257 -104 -257 -104 -264 -106 c 0,19,20
 -270 -108 -270 -108 -274.5 -112.5 c 128,-1,21
 -279 -117 -279 -117 -279 -121 c 256,22,0
 -279 -125 -279 -125 -261 -127.5 c 128,-1,1
-76 -127.5 m 128,-1,24
 -58 -130 -58 -130 -33 -130 c 0,25,26
 -1 -130 -1 -130 10.5 -128.5 c 128,-1,27
 22 -127 22 -127 27.5 -120.5 c 128,-1,28
 33 -114 33 -114 41 -96 c 0,29,30
 47 -82 47 -82 56.5 -68.5 c 128,-1,31
 66 -55 66 -55 73 -51 c 0,32,33
 83 -45 83 -45 73 -43 c 128,-1,34
 63 -41 63 -41 24 -40 c 0,35,36
 -12 -40 -12 -40 -24.5 -41.5 c 128,-1,37
 -37 -43 -37 -43 -42.5 -48.5 c 128,-1,38
 -48 -54 -48 -54 -53 -70 c 0,39,40
 -58 -83 -58 -83 -65 -93.5 c 128,-1,41
 -72 -104 -72 -104 -79 -106 c 0,42,43
 -85 -108 -85 -108 -89.5 -112.5 c 128,-1,44
 -94 -117 -94 -117 -94 -121 c 256,45,23
 -94 -125 -94 -125 -76 -127.5 c 128,-1,24
668 -349 m 0,47,48
 726 -349 726 -349 780 -337 c 0,49,50
 834 -326 834 -326 860 -308 c 128,-1,51
 886 -290 886 -290 886 -262 c 0,52,53
 886 -248 886 -248 881 -235 c 0,54,55
 872 -211 872 -211 843.5 -194 c 128,-1,56
 815 -177 815 -177 784 -177 c 0,57,58
 770 -177 770 -177 759 -181 c 0,59,60
 746 -186 746 -186 746 -198 c 0,61,62
 746 -208 746 -208 759 -232 c 0,63,64
 769 -249 769 -249 769 -263 c 0,65,66
 769 -298 769 -298 693 -298 c 0,67,68
 603 -298 603 -298 416 -251 c 0,69,70
 253 -211 253 -211 174.5 -198 c 128,-1,71
 96 -185 96 -185 23 -185 c 0,72,73
 -38 -186 -38 -186 -93.5 -197.5 c 128,-1,74
 -149 -209 -149 -209 -303 -254 c 0,75,76
 -338 -265 -338 -265 -389 -273.5 c 128,-1,77
 -440 -282 -440 -282 -464 -282 c 0,78,79
 -498 -282 -498 -282 -523.5 -273.5 c 128,-1,80
 -549 -265 -549 -265 -551 -251 c 0,81,82
 -552 -247 -552 -247 -544 -235 c 128,-1,83
 -536 -223 -536 -223 -532 -216 c 0,84,85
 -524 -202 -524 -202 -518.5 -187.5 c 128,-1,86
 -513 -173 -513 -173 -513 -168 c 0,87,88
 -513 -157 -513 -157 -522.5 -151 c 128,-1,89
 -532 -145 -532 -145 -547 -145 c 0,90,91
 -574 -145 -574 -145 -599 -162 c 0,92,93
 -612 -171 -612 -171 -616 -181 c 128,-1,94
 -620 -191 -620 -191 -620 -212 c 0,95,96
 -620 -247 -620 -247 -602.5 -273.5 c 128,-1,97
 -585 -300 -585 -300 -551 -316 c 0,98,99
 -505 -339 -505 -339 -442 -339 c 0,100,101
 -366 -339 -366 -339 -262 -303 c 0,102,103
 -197 -280 -197 -280 -136.5 -269 c 128,-1,104
 -76 -258 -76 -258 -6 -258 c 0,105,106
 73 -258 73 -258 175 -272 c 128,-1,107
 277 -286 277 -286 421 -317 c 0,108,46
 575 -349 575 -349 668 -349 c 0,47,48
EndSplineSet
EndChar

StartChar: bracketright
Encoding: 93 93 19
Width: 0
GlyphClass: 1
Flags: W
LayerCount: 2
Back
SplineSet
-356 -122.5 m 128,-1,1
 -338 -125 -338 -125 -313 -125 c 0,2,3
 -281 -125 -281 -125 -269.5 -123.5 c 128,-1,4
 -258 -122 -258 -122 -252.5 -115.5 c 128,-1,5
 -247 -109 -247 -109 -239 -91 c 0,6,7
 -233 -77 -233 -77 -223.5 -63.5 c 128,-1,8
 -214 -50 -214 -50 -207 -46 c 0,9,10
 -197 -40 -197 -40 -207 -38 c 128,-1,11
 -217 -36 -217 -36 -256 -35 c 0,12,13
 -292 -35 -292 -35 -304.5 -36.5 c 128,-1,14
 -317 -38 -317 -38 -322.5 -43.5 c 128,-1,15
 -328 -49 -328 -49 -333 -65 c 0,16,17
 -338 -78 -338 -78 -345 -88.5 c 128,-1,18
 -352 -99 -352 -99 -359 -101 c 0,19,20
 -365 -103 -365 -103 -369.5 -107.5 c 128,-1,21
 -374 -112 -374 -112 -374 -116 c 256,22,0
 -374 -120 -374 -120 -356 -122.5 c 128,-1,1
-186 -122.5 m 128,-1,24
 -168 -125 -168 -125 -143 -125 c 0,25,26
 -111 -125 -111 -125 -99.5 -123.5 c 128,-1,27
 -88 -122 -88 -122 -82.5 -115.5 c 128,-1,28
 -77 -109 -77 -109 -69 -91 c 0,29,30
 -63 -77 -63 -77 -53.5 -63.5 c 128,-1,31
 -44 -50 -44 -50 -37 -46 c 0,32,33
 -27 -40 -27 -40 -37 -38 c 128,-1,34
 -47 -36 -47 -36 -86 -35 c 0,35,36
 -122 -35 -122 -35 -134.5 -36.5 c 128,-1,37
 -147 -38 -147 -38 -152.5 -43.5 c 128,-1,38
 -158 -49 -158 -49 -163 -65 c 0,39,40
 -168 -78 -168 -78 -175 -88.5 c 128,-1,41
 -182 -99 -182 -99 -189 -101 c 0,42,43
 -195 -103 -195 -103 -199.5 -107.5 c 128,-1,44
 -204 -112 -204 -112 -204 -116 c 256,45,23
 -204 -120 -204 -120 -186 -122.5 c 128,-1,24
-16 -122.5 m 128,-1,47
 2 -125 2 -125 27 -125 c 0,48,49
 59 -125 59 -125 70.5 -123.5 c 128,-1,50
 82 -122 82 -122 87.5 -115.5 c 128,-1,51
 93 -109 93 -109 101 -91 c 0,52,53
 107 -77 107 -77 116.5 -63.5 c 128,-1,54
 126 -50 126 -50 133 -46 c 0,55,56
 143 -40 143 -40 133 -38 c 128,-1,57
 123 -36 123 -36 84 -35 c 0,58,59
 48 -35 48 -35 35.5 -36.5 c 128,-1,60
 23 -38 23 -38 17.5 -43.5 c 128,-1,61
 12 -49 12 -49 7 -65 c 0,62,63
 2 -78 2 -78 -5 -88.5 c 128,-1,64
 -12 -99 -12 -99 -19 -101 c 0,65,66
 -25 -103 -25 -103 -29.5 -107.5 c 128,-1,67
 -34 -112 -34 -112 -34 -116 c 256,68,46
 -34 -120 -34 -120 -16 -122.5 c 128,-1,47
154 -122.5 m 128,-1,70
 172 -125 172 -125 197 -125 c 0,71,72
 229 -125 229 -125 240.5 -123.5 c 128,-1,73
 252 -122 252 -122 257.5 -115.5 c 128,-1,74
 263 -109 263 -109 271 -91 c 0,75,76
 277 -77 277 -77 286.5 -63.5 c 128,-1,77
 296 -50 296 -50 303 -46 c 0,78,79
 313 -40 313 -40 303 -38 c 128,-1,80
 293 -36 293 -36 254 -35 c 0,81,82
 218 -35 218 -35 205.5 -36.5 c 128,-1,83
 193 -38 193 -38 187.5 -43.5 c 128,-1,84
 182 -49 182 -49 177 -65 c 0,85,86
 172 -78 172 -78 165 -88.5 c 128,-1,87
 158 -99 158 -99 151 -101 c 0,88,89
 145 -103 145 -103 140.5 -107.5 c 128,-1,90
 136 -112 136 -112 136 -116 c 256,91,69
 136 -120 136 -120 154 -122.5 c 128,-1,70
668 -349 m 0,93,94
 726 -349 726 -349 780 -337 c 0,95,96
 834 -326 834 -326 860 -308 c 128,-1,97
 886 -290 886 -290 886 -262 c 0,98,99
 886 -248 886 -248 881 -235 c 0,100,101
 872 -211 872 -211 843.5 -194 c 128,-1,102
 815 -177 815 -177 784 -177 c 0,103,104
 770 -177 770 -177 759 -181 c 0,105,106
 746 -186 746 -186 746 -198 c 0,107,108
 746 -208 746 -208 759 -232 c 0,109,110
 769 -249 769 -249 769 -263 c 0,111,112
 769 -298 769 -298 693 -298 c 0,113,114
 603 -298 603 -298 416 -251 c 0,115,116
 253 -211 253 -211 174.5 -198 c 128,-1,117
 96 -185 96 -185 23 -185 c 0,118,119
 -38 -186 -38 -186 -93.5 -197.5 c 128,-1,120
 -149 -209 -149 -209 -303 -254 c 0,121,122
 -338 -265 -338 -265 -389 -273.5 c 128,-1,123
 -440 -282 -440 -282 -464 -282 c 0,124,125
 -498 -282 -498 -282 -523.5 -273.5 c 128,-1,126
 -549 -265 -549 -265 -551 -251 c 0,127,128
 -552 -247 -552 -247 -544 -235 c 128,-1,129
 -536 -223 -536 -223 -532 -216 c 0,130,131
 -524 -202 -524 -202 -518.5 -187.5 c 128,-1,132
 -513 -173 -513 -173 -513 -168 c 0,133,134
 -513 -157 -513 -157 -522.5 -151 c 128,-1,135
 -532 -145 -532 -145 -547 -145 c 0,136,137
 -574 -145 -574 -145 -599 -162 c 0,138,139
 -612 -171 -612 -171 -616 -181 c 128,-1,140
 -620 -191 -620 -191 -620 -212 c 0,141,142
 -620 -247 -620 -247 -602.5 -273.5 c 128,-1,143
 -585 -300 -585 -300 -551 -316 c 0,144,145
 -505 -339 -505 -339 -442 -339 c 0,146,147
 -366 -339 -366 -339 -262 -303 c 0,148,149
 -197 -280 -197 -280 -136.5 -269 c 128,-1,150
 -76 -258 -76 -258 -6 -258 c 0,151,152
 73 -258 73 -258 175 -272 c 128,-1,153
 277 -286 277 -286 421 -317 c 0,154,92
 575 -349 575 -349 668 -349 c 0,93,94
EndSplineSet
Fore
SplineSet
-356 -122.5 m 128,-1,1
 -338 -125 -338 -125 -313 -125 c 0,2,3
 -281 -125 -281 -125 -269.5 -123.5 c 128,-1,4
 -258 -122 -258 -122 -252.5 -115.5 c 128,-1,5
 -247 -109 -247 -109 -239 -91 c 0,6,7
 -233 -77 -233 -77 -223.5 -63.5 c 128,-1,8
 -214 -50 -214 -50 -207 -46 c 0,9,10
 -197 -40 -197 -40 -207 -38 c 128,-1,11
 -217 -36 -217 -36 -256 -35 c 0,12,13
 -292 -35 -292 -35 -304.5 -36.5 c 128,-1,14
 -317 -38 -317 -38 -322.5 -43.5 c 128,-1,15
 -328 -49 -328 -49 -333 -65 c 0,16,17
 -338 -78 -338 -78 -345 -88.5 c 128,-1,18
 -352 -99 -352 -99 -359 -101 c 0,19,20
 -365 -103 -365 -103 -369.5 -107.5 c 128,-1,21
 -374 -112 -374 -112 -374 -116 c 256,22,0
 -374 -120 -374 -120 -356 -122.5 c 128,-1,1
-186 -122.5 m 128,-1,24
 -168 -125 -168 -125 -143 -125 c 0,25,26
 -111 -125 -111 -125 -99.5 -123.5 c 128,-1,27
 -88 -122 -88 -122 -82.5 -115.5 c 128,-1,28
 -77 -109 -77 -109 -69 -91 c 0,29,30
 -63 -77 -63 -77 -53.5 -63.5 c 128,-1,31
 -44 -50 -44 -50 -37 -46 c 0,32,33
 -27 -40 -27 -40 -37 -38 c 128,-1,34
 -47 -36 -47 -36 -86 -35 c 0,35,36
 -122 -35 -122 -35 -134.5 -36.5 c 128,-1,37
 -147 -38 -147 -38 -152.5 -43.5 c 128,-1,38
 -158 -49 -158 -49 -163 -65 c 0,39,40
 -168 -78 -168 -78 -175 -88.5 c 128,-1,41
 -182 -99 -182 -99 -189 -101 c 0,42,43
 -195 -103 -195 -103 -199.5 -107.5 c 128,-1,44
 -204 -112 -204 -112 -204 -116 c 256,45,23
 -204 -120 -204 -120 -186 -122.5 c 128,-1,24
-16 -122.5 m 128,-1,47
 2 -125 2 -125 27 -125 c 0,48,49
 59 -125 59 -125 70.5 -123.5 c 128,-1,50
 82 -122 82 -122 87.5 -115.5 c 128,-1,51
 93 -109 93 -109 101 -91 c 0,52,53
 107 -77 107 -77 116.5 -63.5 c 128,-1,54
 126 -50 126 -50 133 -46 c 0,55,56
 143 -40 143 -40 133 -38 c 128,-1,57
 123 -36 123 -36 84 -35 c 0,58,59
 48 -35 48 -35 35.5 -36.5 c 128,-1,60
 23 -38 23 -38 17.5 -43.5 c 128,-1,61
 12 -49 12 -49 7 -65 c 0,62,63
 2 -78 2 -78 -5 -88.5 c 128,-1,64
 -12 -99 -12 -99 -19 -101 c 0,65,66
 -25 -103 -25 -103 -29.5 -107.5 c 128,-1,67
 -34 -112 -34 -112 -34 -116 c 256,68,46
 -34 -120 -34 -120 -16 -122.5 c 128,-1,47
154 -122.5 m 128,-1,70
 172 -125 172 -125 197 -125 c 0,71,72
 229 -125 229 -125 240.5 -123.5 c 128,-1,73
 252 -122 252 -122 257.5 -115.5 c 128,-1,74
 263 -109 263 -109 271 -91 c 0,75,76
 277 -77 277 -77 286.5 -63.5 c 128,-1,77
 296 -50 296 -50 303 -46 c 0,78,79
 313 -40 313 -40 303 -38 c 128,-1,80
 293 -36 293 -36 254 -35 c 0,81,82
 218 -35 218 -35 205.5 -36.5 c 128,-1,83
 193 -38 193 -38 187.5 -43.5 c 128,-1,84
 182 -49 182 -49 177 -65 c 0,85,86
 172 -78 172 -78 165 -88.5 c 128,-1,87
 158 -99 158 -99 151 -101 c 0,88,89
 145 -103 145 -103 140.5 -107.5 c 128,-1,90
 136 -112 136 -112 136 -116 c 256,91,69
 136 -120 136 -120 154 -122.5 c 128,-1,70
668 -349 m 0,93,94
 726 -349 726 -349 780 -337 c 0,95,96
 834 -326 834 -326 860 -308 c 128,-1,97
 886 -290 886 -290 886 -262 c 0,98,99
 886 -248 886 -248 881 -235 c 0,100,101
 872 -211 872 -211 843.5 -194 c 128,-1,102
 815 -177 815 -177 784 -177 c 0,103,104
 770 -177 770 -177 759 -181 c 0,105,106
 746 -186 746 -186 746 -198 c 0,107,108
 746 -208 746 -208 759 -232 c 0,109,110
 769 -249 769 -249 769 -263 c 0,111,112
 769 -298 769 -298 693 -298 c 0,113,114
 603 -298 603 -298 416 -251 c 0,115,116
 253 -211 253 -211 174.5 -198 c 128,-1,117
 96 -185 96 -185 23 -185 c 0,118,119
 -38 -186 -38 -186 -93.5 -197.5 c 128,-1,120
 -149 -209 -149 -209 -303 -254 c 0,121,122
 -338 -265 -338 -265 -389 -273.5 c 128,-1,123
 -440 -282 -440 -282 -464 -282 c 0,124,125
 -498 -282 -498 -282 -523.5 -273.5 c 128,-1,126
 -549 -265 -549 -265 -551 -251 c 0,127,128
 -552 -247 -552 -247 -544 -235 c 128,-1,129
 -536 -223 -536 -223 -532 -216 c 0,130,131
 -524 -202 -524 -202 -518.5 -187.5 c 128,-1,132
 -513 -173 -513 -173 -513 -168 c 0,133,134
 -513 -157 -513 -157 -522.5 -151 c 128,-1,135
 -532 -145 -532 -145 -547 -145 c 0,136,137
 -574 -145 -574 -145 -599 -162 c 0,138,139
 -612 -171 -612 -171 -616 -181 c 128,-1,140
 -620 -191 -620 -191 -620 -212 c 0,141,142
 -620 -247 -620 -247 -602.5 -273.5 c 128,-1,143
 -585 -300 -585 -300 -551 -316 c 0,144,145
 -505 -339 -505 -339 -442 -339 c 0,146,147
 -366 -339 -366 -339 -262 -303 c 0,148,149
 -197 -280 -197 -280 -136.5 -269 c 128,-1,150
 -76 -258 -76 -258 -6 -258 c 0,151,152
 73 -258 73 -258 175 -272 c 128,-1,153
 277 -286 277 -286 421 -317 c 0,154,92
 575 -349 575 -349 668 -349 c 0,93,94
EndSplineSet
EndChar

StartChar: hyphen
Encoding: 45 45 20
Width: 1130
GlyphClass: 1
Flags: W
LayerCount: 2
Back
SplineSet
510 63 m 128,-1,1
 540 61 540 61 570 61 c 256,2,3
 600 61 600 61 614.5 65.5 c 128,-1,4
 629 70 629 70 640 81 c 0,5,6
 650 91 650 91 653.5 100 c 128,-1,7
 657 109 657 109 657 128 c 256,8,9
 657 147 657 147 654 186 c 1,10,11
 654 180 654 180 650 224 c 2,12,-1
 648 249 l 2,13,14
 648 261 648 261 654.5 265.5 c 128,-1,15
 661 270 661 270 679 270 c 0,16,17
 695 270 695 270 701.5 272.5 c 128,-1,18
 708 275 708 275 708 282 c 0,19,20
 708 292 708 292 702.5 297 c 128,-1,21
 697 302 697 302 680 304 c 128,-1,22
 663 306 663 306 625 308 c 0,23,24
 611 309 611 309 587 309 c 0,25,26
 547 309 547 309 533.5 299 c 128,-1,27
 520 289 520 289 520 256 c 0,28,29
 520 238 520 238 523 211 c 0,30,31
 525 177 525 177 525 168 c 0,32,33
 525 133 525 133 514 121.5 c 128,-1,34
 503 110 503 110 472 110 c 0,35,36
 452 110 452 110 445.5 106.5 c 128,-1,37
 439 103 439 103 441 93 c 0,38,39
 443 86 443 86 451 79 c 128,-1,40
 459 72 459 72 469 69 c 0,41,0
 480 65 480 65 510 63 c 128,-1,1
1047 -10.5 m 128,-1,43
 1087 8 1087 8 1094 25 c 0,44,45
 1100 40 1100 40 1100 53 c 0,46,47
 1100 92 1100 92 1046 119 c 128,-1,48
 992 146 992 146 876 166 c 0,49,50
 820 176 820 176 801 176 c 0,51,52
 784 176 784 176 779 168 c 0,53,54
 772 158 772 158 772 153 c 0,55,56
 772 146 772 146 783.5 141.5 c 128,-1,57
 795 137 795 137 834 126 c 0,58,59
 883 112 883 112 906 96.5 c 128,-1,60
 929 81 929 81 929 60 c 0,61,62
 929 17 929 17 855.5 -6 c 128,-1,63
 782 -29 782 -29 652 -29 c 0,64,65
 631 -29 631 -29 583 -27 c 0,66,67
 507 -25 507 -25 461.5 -19 c 128,-1,68
 416 -13 416 -13 380 -1 c 0,69,70
 315 20 315 20 278.5 44.5 c 128,-1,71
 242 69 242 69 242 90 c 0,72,73
 242 115 242 115 292 125 c 0,74,75
 311 129 311 129 327 134 c 128,-1,76
 343 139 343 139 346 142 c 0,77,78
 354 151 354 151 329 158.5 c 128,-1,79
 304 166 304 166 260 171 c 128,-1,80
 216 176 216 176 172 176 c 0,81,82
 113 176 113 176 85 168 c 0,83,84
 49 158 49 158 39.5 150 c 128,-1,85
 30 142 30 142 30 120 c 0,86,87
 30 77 30 77 78 38.5 c 128,-1,88
 126 0 126 0 210 -24 c 0,89,90
 299 -49 299 -49 409.5 -62.5 c 128,-1,91
 520 -76 520 -76 634 -76 c 0,92,93
 814 -76 814 -76 945 -44 c 0,94,42
 1007 -29 1007 -29 1047 -10.5 c 128,-1,43
EndSplineSet
Fore
SplineSet
510 63 m 128,-1,1
 540 61 540 61 570 61 c 256,2,3
 600 61 600 61 614.5 65.5 c 128,-1,4
 629 70 629 70 640 81 c 0,5,6
 650 91 650 91 653.5 100 c 128,-1,7
 657 109 657 109 657 128 c 256,8,9
 657 147 657 147 654 186 c 1,10,11
 654 180 654 180 650 224 c 2,12,-1
 648 249 l 2,13,14
 648 261 648 261 654.5 265.5 c 128,-1,15
 661 270 661 270 679 270 c 0,16,17
 695 270 695 270 701.5 272.5 c 128,-1,18
 708 275 708 275 708 282 c 0,19,20
 708 292 708 292 702.5 297 c 128,-1,21
 697 302 697 302 680 304 c 128,-1,22
 663 306 663 306 625 308 c 0,23,24
 611 309 611 309 587 309 c 0,25,26
 547 309 547 309 533.5 299 c 128,-1,27
 520 289 520 289 520 256 c 0,28,29
 520 238 520 238 523 211 c 0,30,31
 525 177 525 177 525 168 c 0,32,33
 525 133 525 133 514 121.5 c 128,-1,34
 503 110 503 110 472 110 c 0,35,36
 452 110 452 110 445.5 106.5 c 128,-1,37
 439 103 439 103 441 93 c 0,38,39
 443 86 443 86 451 79 c 128,-1,40
 459 72 459 72 469 69 c 0,41,0
 480 65 480 65 510 63 c 128,-1,1
1047 -10.5 m 128,-1,43
 1087 8 1087 8 1094 25 c 0,44,45
 1100 40 1100 40 1100 53 c 0,46,47
 1100 92 1100 92 1046 119 c 128,-1,48
 992 146 992 146 876 166 c 0,49,50
 820 176 820 176 801 176 c 0,51,52
 784 176 784 176 779 168 c 0,53,54
 772 158 772 158 772 153 c 0,55,56
 772 146 772 146 783.5 141.5 c 128,-1,57
 795 137 795 137 834 126 c 0,58,59
 883 112 883 112 906 96.5 c 128,-1,60
 929 81 929 81 929 60 c 0,61,62
 929 17 929 17 855.5 -6 c 128,-1,63
 782 -29 782 -29 652 -29 c 0,64,65
 631 -29 631 -29 583 -27 c 0,66,67
 507 -25 507 -25 461.5 -19 c 128,-1,68
 416 -13 416 -13 380 -1 c 0,69,70
 315 20 315 20 278.5 44.5 c 128,-1,71
 242 69 242 69 242 90 c 0,72,73
 242 115 242 115 292 125 c 0,74,75
 311 129 311 129 327 134 c 128,-1,76
 343 139 343 139 346 142 c 0,77,78
 354 151 354 151 329 158.5 c 128,-1,79
 304 166 304 166 260 171 c 128,-1,80
 216 176 216 176 172 176 c 0,81,82
 113 176 113 176 85 168 c 0,83,84
 49 158 49 158 39.5 150 c 128,-1,85
 30 142 30 142 30 120 c 0,86,87
 30 77 30 77 78 38.5 c 128,-1,88
 126 0 126 0 210 -24 c 0,89,90
 299 -49 299 -49 409.5 -62.5 c 128,-1,91
 520 -76 520 -76 634 -76 c 0,92,93
 814 -76 814 -76 945 -44 c 0,94,42
 1007 -29 1007 -29 1047 -10.5 c 128,-1,43
EndSplineSet
EndChar

StartChar: underscore
Encoding: 95 95 21
Width: 1710
GlyphClass: 1
Flags: W
LayerCount: 2
Back
SplineSet
402 251 m 0,1,2
 473 251 473 251 522 266 c 0,3,4
 611 293 611 293 611 331 c 0,5,6
 611 352 611 352 582 379 c 256,7,8
 553 406 553 406 463.5 434.5 c 128,-1,9
 374 463 374 463 270 482 c 128,-1,10
 166 501 166 501 100 501 c 0,11,12
 40 501 40 501 34 484 c 0,13,14
 30 475 30 475 30 466 c 0,15,16
 30 448 30 448 58.5 440.5 c 128,-1,17
 87 433 87 433 162 429 c 0,18,19
 259 424 259 424 309.5 412.5 c 128,-1,20
 360 401 360 401 382 379 c 0,21,22
 402 359 402 359 402 345 c 0,23,24
 402 323 402 323 354 314 c 0,25,26
 329 310 329 310 315 301 c 128,-1,27
 301 292 301 292 301 282 c 0,28,29
 301 270 301 270 323 261 c 0,30,0
 347 251 347 251 402 251 c 0,1,2
921.5 218 m 128,-1,32
 932 216 932 216 935.5 215.5 c 128,-1,33
 939 215 939 215 943 217 c 0,34,35
 949 220 949 220 953.5 229 c 128,-1,36
 958 238 958 238 958 246 c 0,37,38
 958 253 958 253 955 256 c 0,39,40
 950 263 950 263 928 266 c 0,41,42
 868 276 868 276 838 300.5 c 128,-1,43
 808 325 808 325 811 356 c 0,44,45
 816 403 816 403 884 428 c 128,-1,46
 952 453 952 453 1074 453 c 0,47,48
 1327 453 1327 453 1415 356 c 0,49,50
 1430 338 1430 338 1436 328.5 c 128,-1,51
 1442 319 1442 319 1442 311 c 0,52,53
 1442 278 1442 278 1389 275 c 0,54,55
 1366 273 1366 273 1355.5 270.5 c 128,-1,56
 1345 268 1345 268 1341 262 c 0,57,58
 1338 258 1338 258 1338 255 c 0,59,60
 1338 249 1338 249 1350 241 c 0,61,62
 1361 233 1361 233 1417.5 224.5 c 128,-1,63
 1474 216 1474 216 1513 216 c 0,64,65
 1528 216 1528 216 1534 217 c 0,66,67
 1580 223 1580 223 1598.5 228 c 128,-1,68
 1617 233 1617 233 1625 244.5 c 128,-1,69
 1633 256 1633 256 1633 281 c 0,70,71
 1633 313 1633 313 1624.5 333.5 c 128,-1,72
 1616 354 1616 354 1595 374 c 0,73,74
 1517 454 1517 454 1293 483 c 0,75,76
 1207 494 1207 494 1150.5 499.5 c 128,-1,77
 1094 505 1094 505 1044 505 c 0,78,79
 974 505 974 505 906.5 493.5 c 128,-1,80
 839 482 839 482 755 455 c 0,81,82
 705 439 705 439 682.5 423 c 128,-1,83
 660 407 660 407 653 383 c 0,84,85
 648 368 648 368 648 353 c 0,86,87
 648 309 648 309 708 274.5 c 128,-1,88
 768 240 768 240 886 223 c 0,89,31
 911 220 911 220 921.5 218 c 128,-1,32
1627 -10.5 m 128,-1,91
 1667 8 1667 8 1674 25 c 0,92,93
 1680 40 1680 40 1680 53 c 0,94,95
 1680 92 1680 92 1626 119 c 128,-1,96
 1572 146 1572 146 1456 166 c 0,97,98
 1400 176 1400 176 1381 176 c 0,99,100
 1364 176 1364 176 1359 168 c 0,101,102
 1352 158 1352 158 1352 153 c 0,103,104
 1352 146 1352 146 1363.5 141.5 c 128,-1,105
 1375 137 1375 137 1414 126 c 0,106,107
 1463 112 1463 112 1486 96.5 c 128,-1,108
 1509 81 1509 81 1509 60 c 0,109,110
 1509 17 1509 17 1435.5 -6 c 128,-1,111
 1362 -29 1362 -29 1232 -29 c 0,112,113
 1211 -29 1211 -29 1163 -27 c 0,114,115
 1087 -25 1087 -25 1041.5 -19 c 128,-1,116
 996 -13 996 -13 960 -1 c 0,117,118
 895 20 895 20 858.5 44.5 c 128,-1,119
 822 69 822 69 822 90 c 0,120,121
 822 115 822 115 872 125 c 0,122,123
 891 129 891 129 907 134 c 128,-1,124
 923 139 923 139 926 142 c 0,125,126
 934 151 934 151 909 158.5 c 128,-1,127
 884 166 884 166 840 171 c 128,-1,128
 796 176 796 176 752 176 c 0,129,130
 693 176 693 176 665 168 c 0,131,132
 629 158 629 158 619.5 150 c 128,-1,133
 610 142 610 142 610 120 c 0,134,135
 610 77 610 77 658 38.5 c 128,-1,136
 706 0 706 0 790 -24 c 0,137,138
 879 -49 879 -49 989.5 -62.5 c 128,-1,139
 1100 -76 1100 -76 1214 -76 c 0,140,141
 1394 -76 1394 -76 1525 -44 c 0,142,90
 1587 -29 1587 -29 1627 -10.5 c 128,-1,91
EndSplineSet
Fore
SplineSet
402 251 m 0,1,2
 473 251 473 251 522 266 c 0,3,4
 611 293 611 293 611 331 c 0,5,6
 611 352 611 352 582 379 c 256,7,8
 553 406 553 406 463.5 434.5 c 128,-1,9
 374 463 374 463 270 482 c 128,-1,10
 166 501 166 501 100 501 c 0,11,12
 40 501 40 501 34 484 c 0,13,14
 30 475 30 475 30 466 c 0,15,16
 30 448 30 448 58.5 440.5 c 128,-1,17
 87 433 87 433 162 429 c 0,18,19
 259 424 259 424 309.5 412.5 c 128,-1,20
 360 401 360 401 382 379 c 0,21,22
 402 359 402 359 402 345 c 0,23,24
 402 323 402 323 354 314 c 0,25,26
 329 310 329 310 315 301 c 128,-1,27
 301 292 301 292 301 282 c 0,28,29
 301 270 301 270 323 261 c 0,30,0
 347 251 347 251 402 251 c 0,1,2
921.5 218 m 128,-1,32
 932 216 932 216 935.5 215.5 c 128,-1,33
 939 215 939 215 943 217 c 0,34,35
 949 220 949 220 953.5 229 c 128,-1,36
 958 238 958 238 958 246 c 0,37,38
 958 253 958 253 955 256 c 0,39,40
 950 263 950 263 928 266 c 0,41,42
 868 276 868 276 838 300.5 c 128,-1,43
 808 325 808 325 811 356 c 0,44,45
 816 403 816 403 884 428 c 128,-1,46
 952 453 952 453 1074 453 c 0,47,48
 1327 453 1327 453 1415 356 c 0,49,50
 1430 338 1430 338 1436 328.5 c 128,-1,51
 1442 319 1442 319 1442 311 c 0,52,53
 1442 278 1442 278 1389 275 c 0,54,55
 1366 273 1366 273 1355.5 270.5 c 128,-1,56
 1345 268 1345 268 1341 262 c 0,57,58
 1338 258 1338 258 1338 255 c 0,59,60
 1338 249 1338 249 1350 241 c 0,61,62
 1361 233 1361 233 1417.5 224.5 c 128,-1,63
 1474 216 1474 216 1513 216 c 0,64,65
 1528 216 1528 216 1534 217 c 0,66,67
 1580 223 1580 223 1598.5 228 c 128,-1,68
 1617 233 1617 233 1625 244.5 c 128,-1,69
 1633 256 1633 256 1633 281 c 0,70,71
 1633 313 1633 313 1624.5 333.5 c 128,-1,72
 1616 354 1616 354 1595 374 c 0,73,74
 1517 454 1517 454 1293 483 c 0,75,76
 1207 494 1207 494 1150.5 499.5 c 128,-1,77
 1094 505 1094 505 1044 505 c 0,78,79
 974 505 974 505 906.5 493.5 c 128,-1,80
 839 482 839 482 755 455 c 0,81,82
 705 439 705 439 682.5 423 c 128,-1,83
 660 407 660 407 653 383 c 0,84,85
 648 368 648 368 648 353 c 0,86,87
 648 309 648 309 708 274.5 c 128,-1,88
 768 240 768 240 886 223 c 0,89,31
 911 220 911 220 921.5 218 c 128,-1,32
1627 -10.5 m 128,-1,91
 1667 8 1667 8 1674 25 c 0,92,93
 1680 40 1680 40 1680 53 c 0,94,95
 1680 92 1680 92 1626 119 c 128,-1,96
 1572 146 1572 146 1456 166 c 0,97,98
 1400 176 1400 176 1381 176 c 0,99,100
 1364 176 1364 176 1359 168 c 0,101,102
 1352 158 1352 158 1352 153 c 0,103,104
 1352 146 1352 146 1363.5 141.5 c 128,-1,105
 1375 137 1375 137 1414 126 c 0,106,107
 1463 112 1463 112 1486 96.5 c 128,-1,108
 1509 81 1509 81 1509 60 c 0,109,110
 1509 17 1509 17 1435.5 -6 c 128,-1,111
 1362 -29 1362 -29 1232 -29 c 0,112,113
 1211 -29 1211 -29 1163 -27 c 0,114,115
 1087 -25 1087 -25 1041.5 -19 c 128,-1,116
 996 -13 996 -13 960 -1 c 0,117,118
 895 20 895 20 858.5 44.5 c 128,-1,119
 822 69 822 69 822 90 c 0,120,121
 822 115 822 115 872 125 c 0,122,123
 891 129 891 129 907 134 c 128,-1,124
 923 139 923 139 926 142 c 0,125,126
 934 151 934 151 909 158.5 c 128,-1,127
 884 166 884 166 840 171 c 128,-1,128
 796 176 796 176 752 176 c 0,129,130
 693 176 693 176 665 168 c 0,131,132
 629 158 629 158 619.5 150 c 128,-1,133
 610 142 610 142 610 120 c 0,134,135
 610 77 610 77 658 38.5 c 128,-1,136
 706 0 706 0 790 -24 c 0,137,138
 879 -49 879 -49 989.5 -62.5 c 128,-1,139
 1100 -76 1100 -76 1214 -76 c 0,140,141
 1394 -76 1394 -76 1525 -44 c 0,142,90
 1587 -29 1587 -29 1627 -10.5 c 128,-1,91
EndSplineSet
EndChar
